<svg width="25" height="24" viewBox="0 0 25 24" fill="none" xmlns="http://www.w3.org/2000/svg">
<path d="M6.22142 16H3.08984M6.22142 8C4.99847 8 3.08984 8 3.08984 8M3.08984 12H6.22142M20.0898 19L20.0898 5C20.0898 4.46957 19.8908 3.96086 19.5366 3.58579C19.1824 3.21071 18.7019 3 18.201 3L6.86762 3C6.36666 3 5.88621 3.21071 5.53198 3.58579C5.17774 3.96086 4.97873 4.46957 4.97873 5L4.97873 19C4.97873 19.5304 5.17774 20.0391 5.53198 20.4142C5.88621 20.7893 6.36666 21 6.86762 21L18.201 21C18.7019 21 19.1824 20.7893 19.5366 20.4142C19.8908 20.0391 20.0898 19.5304 20.0898 19Z" stroke="currentColor" stroke-width="2" stroke-linecap="round" stroke-linejoin="round"/>
<path fill-rule="evenodd" clip-rule="evenodd" d="M9.08984 16C9.08984 15.4747 9.18037 14.9546 9.35627 14.4693C9.53216 13.984 9.78996 13.543 10.115 13.1716C10.44 12.8001 10.8258 12.5055 11.2505 12.3045C11.6751 12.1035 12.1302 12 12.5898 12C13.0495 12 13.5046 12.1035 13.9292 12.3045C14.3539 12.5055 14.7397 12.8001 15.0647 13.1716C15.3897 13.543 15.6475 13.984 15.8234 14.4693C15.9993 14.9546 16.0898 15.4747 16.0898 16L9.08984 16Z" fill="currentColor"/>
<path d="M13.6505 10.5607C13.3692 10.842 12.9877 11 12.5898 11C12.192 11 11.8105 10.842 11.5292 10.5607C11.2479 10.2794 11.0898 9.89782 11.0898 9.5C11.0898 9.10218 11.2479 8.72064 11.5292 8.43934C11.8105 8.15804 12.192 8 12.5898 8C12.9877 8 13.3692 8.15804 13.6505 8.43934C13.9318 8.72064 14.0898 9.10218 14.0898 9.5C14.0898 9.89782 13.9318 10.2794 13.6505 10.5607Z" fill="currentColor"/>
</svg>
