<svg width="24" height="24" viewBox="0 0 24 24" fill="none" xmlns="http://www.w3.org/2000/svg">
  <path d="M10 17H6C4.89543 17 4 16.1046 4 15V7C4 5.89543 4.89543 5 6 5H18C19.1046 5 20 5.89543 20 7V11" stroke="currentColor" stroke-width="2" stroke-linecap="round"></path>
        
  <path d="M18 14L21 17M21 17L18 20M21 17L14 17" stroke="currentColor" stroke-width="2" stroke-linecap="round" stroke-linejoin="round"></path>
        
  <path d="M12.0408 13C13.1679 13 14 12.1046 14 11C14 9.89543 13.1679 9 12.0408 9C10.9137 9 10 9.89543 10 11C10 12.1046 10.9137 13 12.0408 13Z" stroke="currentColor" stroke-width="2" stroke-linecap="round" stroke-linejoin="round"></path>
</svg>