<svg width="24" height="24" viewBox="0 0 24 24" fill="none" xmlns="http://www.w3.org/2000/svg">
<path d="M15 9.5C14.7 8.66667 13.7 8.25 12 8.25M12 8.25C9.4 8.25 9 9.5 9 10.1667C9 12.75 15 11.4167 15 13.9167C15 14.5833 14.6 15.75 12 15.75M12 8.25V7M12 15.75C10.3 15.75 9.3 15.3333 9 14.5M12 15.75V17" stroke="currentColor" stroke-width="2" stroke-miterlimit="10" stroke-linecap="round" stroke-linejoin="round"/>
<path d="M21 12C21 7.02944 16.9706 3 12 3C7.02944 3 3 7.02944 3 12C3 16.9706 7.02944 21 12 21C13.28 21 14.4976 20.7328 15.6 20.2511" stroke="currentColor" stroke-width="2" stroke-linecap="round"/>
<path d="M23 19.3673L21 21M21 21L19 19.3673M21 21V16" stroke="currentColor" stroke-width="2" stroke-linecap="round" stroke-linejoin="round"/>
</svg>
