<svg width="24" height="24" viewBox="0 0 24 24" fill="none" xmlns="http://www.w3.org/2000/svg">
  <path d="M14 17H18C19.1046 17 20 16.1046 20 15V7C20 5.89543 19.1046 5 18 5H6C4.89543 5 4 5.89543 4 7V11" stroke="currentColor" stroke-width="2" stroke-linecap="round"></path>
        
  <path d="M6 14L3 17M3 17L6 20M3 17L10 17" stroke="currentColor" stroke-width="2" stroke-linecap="round" stroke-linejoin="round"></path>
        
  <path d="M11.9592 13C10.8321 13 10 12.1046 10 11C10 9.89543 10.8321 9 11.9592 9C13.0863 9 14 9.89543 14 11C14 12.1046 13.0863 13 11.9592 13Z" stroke="currentColor" stroke-width="2" stroke-linecap="round" stroke-linejoin="round"></path>
</svg>