<svg width="24" height="24" viewBox="0 0 24 24" fill="none" xmlns="http://www.w3.org/2000/svg">
<path d="M19.9744 4.05747C19.9547 4.06763 19.9377 4.07937 19.9203 4.09307C19.4565 4.45688 12.5924 9.83986 10.8272 11.147C9.00347 12.4974 10.993 14.9905 12.8795 13.4835C12.8865 13.4779 12.8936 13.4719 12.9002 13.4658C12.9121 13.4548 12.9318 13.4363 12.9424 13.4243L20.5724 4.83668C20.9434 4.41913 20.4563 3.80948 19.9744 4.05747Z" fill="currentColor"/>
<path fill-rule="evenodd" clip-rule="evenodd" d="M12 20C16.4183 20 20 16.4183 20 12C20 11.3228 19.9159 10.6653 19.7575 10.0374C19.6643 9.66775 19.7399 9.27033 19.9931 8.98537C20.5008 8.414 21.4221 8.55508 21.6287 9.29094C21.8706 10.1525 22 11.0611 22 12C22 17.5228 17.5228 22 12 22C6.47715 22 2 17.5228 2 12C2 6.47715 6.47715 2 12 2C13.5037 2 14.9298 2.33188 16.2092 2.9264C16.9178 3.25568 16.8919 4.21098 16.2185 4.60741C15.9003 4.79479 15.5099 4.79953 15.1709 4.65301C14.1986 4.23284 13.1265 4 12 4C7.58172 4 4 7.58172 4 12C4 16.4183 7.58172 20 12 20Z" fill="currentColor"/>
</svg>
