<svg width="24" height="24" viewBox="0 0 24 24" fill="none" xmlns="http://www.w3.org/2000/svg">
<path d="M18 16L16.8333 9M12 4H14.3057C15.2834 4 16.1178 4.70683 16.2785 5.6712L16.8333 9M6 16L16.8333 9M12 11.5L9 8H6M10 16C10 18.2091 8.20914 20 6 20C3.79086 20 2 18.2091 2 16C2 13.7909 3.79086 12 6 12C8.20914 12 10 13.7909 10 16ZM22 16C22 18.2091 20.2091 20 18 20C15.7909 20 14 18.2091 14 16C14 13.7909 15.7909 12 18 12C20.2091 12 22 13.7909 22 16Z" stroke="currentColor" stroke-width="2" stroke-linecap="round" stroke-linejoin="round"/>
</svg>
