<svg width="24" height="24" viewBox="0 0 24 24" fill="none" xmlns="http://www.w3.org/2000/svg">
<path d="M10.4951 3.5H7.29512C5.61496 3.5 4.77488 3.5 4.13315 3.82698C3.56866 4.1146 3.10972 4.57354 2.8221 5.13803C2.49512 5.77976 2.49512 6.61984 2.49512 8.3V16.7C2.49512 18.3802 2.49512 19.2202 2.8221 19.862C3.10972 20.4265 3.56866 20.8854 4.13315 21.173C4.77488 21.5 5.61496 21.5 7.29512 21.5H15.6951C17.3753 21.5 18.2154 21.5 18.8571 21.173C19.4216 20.8854 19.8805 20.4265 20.1681 19.862C20.4951 19.2202 20.4951 18.3802 20.4951 16.7V13.5M11.4951 8.5H15.4951V12.5M14.9951 4V2.5M18.9345 5.06066L19.9951 4M20.0054 9H21.5054M2.49512 13.8471C3.14706 13.9478 3.81499 14 4.49512 14C8.88148 14 12.7604 11.8276 15.1148 8.5" stroke="currentColor" stroke-width="2" stroke-linecap="round" stroke-linejoin="round"/>
</svg>
