<svg width="24" height="24" viewBox="0 0 24 24" fill="none" xmlns="http://www.w3.org/2000/svg">
<path d="M10.4941 3.5H7.29414C5.61398 3.5 4.7739 3.5 4.13217 3.82698C3.56768 4.1146 3.10874 4.57354 2.82112 5.13803C2.49414 5.77976 2.49414 6.61984 2.49414 8.3V16.7C2.49414 18.3802 2.49414 19.2202 2.82112 19.862C3.10874 20.4265 3.56768 20.8854 4.13217 21.173C4.7739 21.5 5.61398 21.5 7.29414 21.5H15.6941C17.3743 21.5 18.2144 21.5 18.8561 21.173C19.4206 20.8854 19.8795 20.4265 20.1672 19.862C20.4941 19.2202 20.4941 18.3802 20.4941 16.7V13.5M11.4941 8.5H15.4941V12.5M14.9941 4V2.5M18.9335 5.06066L19.9941 4M20.0044 9H21.5044M2.49414 13.8471C3.14608 13.9478 3.81401 14 4.49414 14C8.8805 14 12.7595 11.8276 15.1138 8.5" stroke="currentColor"/>
</svg>
