<svg width="24" height="24" viewBox="0 0 24 24" fill="none" xmlns="http://www.w3.org/2000/svg">
<path d="M14.5 9.5C14.25 8.66667 13.4167 8.25 12 8.25M12 8.25C9.83333 8.25 9.5 9.5 9.5 10.1667C9.5 12.75 14.5 11.4167 14.5 13.9167C14.5 14.5833 14.1667 15.75 12 15.75M12 8.25V7M12 15.75C10.5833 15.75 9.75 15.3333 9.5 14.5M12 15.75V17" stroke="currentColor" stroke-width="2" stroke-miterlimit="10" stroke-linecap="round" stroke-linejoin="round"/>
<path d="M3 12C3 9.61305 3.94821 7.32387 5.63604 5.63604C7.32387 3.94821 9.61305 3 12 3C14.3869 3 16.6761 3.94821 18.364 5.63604C20.0518 7.32387 21 9.61305 21 12C21 14.3869 20.0518 16.6761 18.364 18.364C16.6761 20.0518 14.3869 21 12 21C9.61305 21 7.32387 20.0518 5.63604 18.364C5.41067 18.1386 5.19849 17.9025 4.99999 17.6569M7 17H4V19.7" stroke="currentColor" stroke-width="2" stroke-linecap="round" stroke-linejoin="round"/>
</svg>
