<svg width="24" height="24" viewBox="0 0 32 32" xmlns="http://www.w3.org/2000/svg">
<path stroke-width="2" stroke-linecap="round" stroke-linejoin="round" d="M18.8016 13.8121C18.963 14.3501 19.53 14.6555 20.0681 14.494C20.6061 14.3326 20.9114 13.7656 20.75 13.2275L18.8016 13.8121ZM14.3082 19.6694C14.1468 19.1313 13.5797 18.826 13.0417 18.9874C12.5036 19.1488 12.1983 19.7158 12.3597 20.2539L14.3082 19.6694ZM17.572 10.2989C17.572 9.73715 17.1166 9.28176 16.5549 9.28176C15.9931 9.28176 15.5377 9.73715 15.5377 10.2989H17.572ZM15.5377 23.1825C15.5377 23.7443 15.9931 24.1997 16.5549 24.1997C17.1166 24.1997 17.572 23.7443 17.572 23.1825H15.5377ZM3.3254 16.7407C3.3254 17.3025 3.78078 17.7579 4.34253 17.7579C4.90427 17.7579 5.35966 17.3025 5.35966 16.7407H3.3254ZM16.5481 27.9292C15.9863 27.9292 15.531 28.3845 15.531 28.9463C15.531 29.508 15.9863 29.9634 16.5481 29.9634V27.9292ZM25.898 7.39046C25.5008 6.99325 24.8568 6.99325 24.4596 7.39046C24.0624 7.78767 24.0624 8.43168 24.4596 8.8289L25.898 7.39046ZM4.67217 26.9789C4.66867 27.5406 5.12121 27.9988 5.68295 28.0023C6.24468 28.0058 6.70289 27.5533 6.70639 26.9915L4.67217 26.9789ZM5.71315 23.1494L5.71948 22.1323C5.15775 22.1288 4.69954 22.5814 4.69604 23.1431L5.71315 23.1494ZM9.59063 24.1907C10.1524 24.1942 10.6106 23.7417 10.6141 23.1799C10.6176 22.6182 10.165 22.16 9.60329 22.1565L9.59063 24.1907ZM6.9239 25.7986C7.32112 26.1958 7.96513 26.1958 8.36234 25.7986C8.75955 25.4014 8.75955 24.7574 8.36234 24.3602L6.9239 25.7986ZM20.75 13.2275C20.5022 12.4015 19.9517 11.7861 19.1839 11.4022C18.4514 11.036 17.5505 10.8922 16.5549 10.8922V12.9265C17.3844 12.9265 17.933 13.0511 18.2741 13.2217C18.58 13.3746 18.7273 13.5645 18.8016 13.8121L20.75 13.2275ZM16.5549 10.8922C14.9605 10.8922 13.8421 11.3586 13.1396 12.1437C12.4585 12.905 12.3168 13.8023 12.3168 14.3787H14.3511C14.3511 14.0962 14.4242 13.7588 14.6556 13.5002C14.8658 13.2653 15.3578 12.9265 16.5549 12.9265V10.8922ZM12.3168 14.3787C12.3168 14.9683 12.4625 15.4981 12.7517 15.9544C13.0358 16.4025 13.4226 16.7235 13.8226 16.9602C14.5833 17.4103 15.5508 17.6384 16.3159 17.8233C17.1679 18.0292 17.8136 18.1907 18.2659 18.4483C18.4722 18.5657 18.5854 18.6761 18.6492 18.7732C18.7065 18.8604 18.7587 18.9878 18.7587 19.2101H20.7929C20.7929 18.6271 20.6437 18.1037 20.3488 17.6553C20.0603 17.2168 19.6703 16.907 19.2726 16.6805C18.517 16.2503 17.5523 16.0293 16.7938 15.846C15.9485 15.6417 15.3056 15.474 14.8584 15.2094C14.6545 15.0887 14.538 14.9728 14.4698 14.8652C14.4068 14.7658 14.3511 14.6212 14.3511 14.3787H12.3168ZM18.7587 19.2101C18.7587 19.4879 18.6882 19.7866 18.4727 20.0148C18.2689 20.2305 17.773 20.555 16.5549 20.555V22.5892C18.1282 22.5892 19.2427 22.1621 19.9516 21.4116C20.6487 20.6735 20.7929 19.7912 20.7929 19.2101H18.7587ZM16.5549 20.555C15.7253 20.555 15.1768 20.4303 14.8356 20.2597C14.5298 20.1068 14.3825 19.917 14.3082 19.6694L12.3597 20.2539C12.6075 21.0799 13.1581 21.6953 13.9259 22.0792C14.6584 22.4455 15.5592 22.5892 16.5549 22.5892V20.555ZM15.5377 10.2989V11.9094H17.572V10.2989H15.5377ZM15.5377 21.5721V23.1825H17.572V21.5721H15.5377ZM16.5481 5.55229C21.296 5.55229 25.3556 8.5101 26.98 12.6873L28.8759 11.95C26.9577 7.01712 22.1628 3.51803 16.5481 3.51803V5.55229ZM26.98 12.6873C27.4265 13.8356 27.6891 15.0766 27.7307 16.3751L29.7639 16.3099C29.7148 14.7776 29.4046 13.3096 28.8759 11.95L26.98 12.6873ZM27.7307 16.3751C27.7346 16.4964 27.7365 16.6183 27.7365 16.7407H29.7708C29.7708 16.5966 29.7685 16.453 29.7639 16.3099L27.7307 16.3751ZM5.35966 16.7407C5.35966 10.5615 10.3689 5.55229 16.5481 5.55229V3.51803C9.2454 3.51803 3.3254 9.43803 3.3254 16.7407H5.35966ZM27.7365 16.7407C27.7365 16.8433 27.7352 16.9455 27.7324 17.0474L29.7659 17.102C29.7692 16.982 29.7708 16.8615 29.7708 16.7407H27.7365ZM27.7324 17.0474C27.6936 18.4919 27.3814 19.8662 26.8464 21.1221L28.7179 21.9194C29.3513 20.4326 29.7202 18.8066 29.7659 17.102L27.7324 17.0474ZM26.8464 21.1221C26.3635 22.2554 25.6986 23.2935 24.888 24.1993L26.4038 25.5559C27.3607 24.4867 28.1467 23.2602 28.7179 21.9194L26.8464 21.1221ZM24.888 24.1993C24.5968 24.5246 24.287 24.8327 23.9601 25.1221L25.3083 26.6454C25.6943 26.3038 26.0601 25.94 26.4038 25.5559L24.888 24.1993ZM23.9601 25.1221C23.1364 25.851 22.2051 26.4601 21.1933 26.9226L22.0389 28.7727C23.2356 28.2258 24.336 27.5059 25.3083 26.6454L23.9601 25.1221ZM21.1933 26.9226C19.7797 27.5686 18.2074 27.9292 16.5481 27.9292V29.9634C18.505 29.9634 20.3652 29.5377 22.0389 28.7727L21.1933 26.9226ZM24.4596 24.6517C24.2965 24.8148 24.1298 24.9717 23.9597 25.1224L25.3087 26.645C25.5095 26.4671 25.706 26.2822 25.898 26.0902L24.4596 24.6517ZM23.9597 25.1224C23.112 25.8734 22.1787 26.4731 21.194 26.9222L22.0382 28.7731C23.2039 28.2414 24.3079 27.5318 25.3087 26.645L23.9597 25.1224ZM21.194 26.9222C17.0661 28.805 12.0312 28.0462 8.63675 24.6517L7.19831 26.0902C11.2124 30.1042 17.1631 30.9966 22.0382 28.7731L21.194 26.9222ZM24.4596 8.8289C25.5956 9.9649 26.4349 11.2822 26.9797 12.6865L28.8762 11.9507C28.2311 10.288 27.2377 8.73012 25.898 7.39046L24.4596 8.8289ZM26.9797 12.6865C27.4395 13.8718 27.69 15.1205 27.7307 16.3754L29.7639 16.3095C29.7159 14.8283 29.4202 13.3529 28.8762 11.9507L26.9797 12.6865ZM27.7307 16.3754C27.7379 16.5992 27.7385 16.8232 27.7324 17.047L29.7659 17.1024C29.7731 16.8381 29.7724 16.5737 29.7639 16.3095L27.7307 16.3754ZM27.7324 17.047C27.6945 18.4381 27.3989 19.8226 26.8461 21.1228L28.7182 21.9187C29.3722 20.3804 29.7212 18.7443 29.7659 17.1024L27.7324 17.047ZM26.8461 21.1228C26.3784 22.223 25.7261 23.2639 24.8884 24.1989L26.4034 25.5564C27.3925 24.4525 28.1645 23.2212 28.7182 21.9187L26.8461 21.1228ZM24.8884 24.1989C24.7505 24.3527 24.6076 24.5037 24.4596 24.6517L25.898 26.0902C26.0723 25.9159 26.2408 25.7379 26.4034 25.5564L24.8884 24.1989ZM6.70639 26.9915L6.73026 23.1558L4.69604 23.1431L4.67217 26.9789L6.70639 26.9915ZM5.70682 24.1665L9.59063 24.1907L9.60329 22.1565L5.71948 22.1323L5.70682 24.1665ZM4.99393 23.8687L6.9239 25.7986L8.36234 24.3602L6.43237 22.4302L4.99393 23.8687Z"/>
</svg>