<svg width="24" height="24" viewBox="0 0 24 24" fill="none" xmlns="http://www.w3.org/2000/svg">
<path d="M13.5 11V9M13.5 11V9M13.5 11C13.5 11.5523 13.0523 12 12.5 12H8.5C7.94772 12 7.5 11.5523 7.5 11V9C7.5 8.44772 7.94772 8 8.5 8H12.5C13.0523 8 13.5 8.44772 13.5 9M13.5 11C13.5 11.5523 13.9477 12 14.5 12H18.5C19.0523 12 19.5 11.5523 19.5 11V9C19.5 8.44772 19.0523 8 18.5 8H14.5C13.9477 8 13.5 8.44772 13.5 9M10.5 15V13M10.5 15C10.5 15.5523 10.9477 16 11.5 16H15.5C16.0523 16 16.5 15.5523 16.5 15V13C16.5 12.4477 16.0523 12 15.5 12H11.5C10.9477 12 10.5 12.4477 10.5 13M10.5 15V13M10.5 15C10.5 15.5523 10.0523 16 9.5 16H5.5C4.94772 16 4.5 15.5523 4.5 15V13C4.5 12.4477 4.94772 12 5.5 12H9.5C10.0523 12 10.5 12.4477 10.5 13M13.5 19V17M13.5 19C13.5 19.5523 13.9477 20 14.5 20H18.5C19.0523 20 19.5 19.5523 19.5 19V17C19.5 16.4477 19.0523 16 18.5 16H14.5C13.9477 16 13.5 16.4477 13.5 17M13.5 19V17M13.5 19C13.5 19.5523 13.0523 20 12.5 20H8.5C7.94772 20 7.5 19.5523 7.5 19V17C7.5 16.4477 7.94772 16 8.5 16H12.5C13.0523 16 13.5 16.4477 13.5 17M11.5 8H15.5C16.0523 8 16.5 7.55228 16.5 7V5C16.5 4.44772 16.0523 4 15.5 4H11.5C10.9477 4 10.5 4.44772 10.5 5V7C10.5 7.55228 10.9477 8 11.5 8Z" stroke="currentColor" stroke-width="2"/>
</svg>
