<svg width="24" height="24" viewBox="0 0 24 24" fill="none" xmlns="http://www.w3.org/2000/svg">
<path d="M6.13158 16H3M6.13158 8C4.90862 8 3 8 3 8M3 12H6.13158M20 19V5C20 4.46957 19.801 3.96086 19.4468 3.58579C19.0925 3.21071 18.6121 3 18.1111 3H6.77778C6.27681 3 5.79637 3.21071 5.44213 3.58579C5.0879 3.96086 4.88889 4.46957 4.88889 5V19C4.88889 19.5304 5.0879 20.0391 5.44213 20.4142C5.79637 20.7893 6.27681 21 6.77778 21H18.1111C18.6121 21 19.0925 20.7893 19.4468 20.4142C19.801 20.0391 20 19.5304 20 19Z" stroke="currentColor" stroke-width="2" stroke-linecap="round" stroke-linejoin="round"/>
<path fill-rule="evenodd" clip-rule="evenodd" d="M9 16C9 15.4747 9.09053 14.9546 9.26642 14.4693C9.44231 13.984 9.70012 13.543 10.0251 13.1716C10.3501 12.8001 10.736 12.5055 11.1606 12.3045C11.5852 12.1035 12.0404 12 12.5 12C12.9596 12 13.4148 12.1035 13.8394 12.3045C14.264 12.5055 14.6499 12.8001 14.9749 13.1716C15.2999 13.543 15.5577 13.984 15.7336 14.4693C15.9095 14.9546 16 15.4747 16 16L9 16Z" fill="currentColor"/>
<path d="M13.5607 10.5607C13.2794 10.842 12.8978 11 12.5 11C12.1022 11 11.7206 10.842 11.4393 10.5607C11.158 10.2794 11 9.89782 11 9.5C11 9.10218 11.158 8.72064 11.4393 8.43934C11.7206 8.15804 12.1022 8 12.5 8C12.8978 8 13.2794 8.15804 13.5607 8.43934C13.842 8.72064 14 9.10218 14 9.5C14 9.89782 13.842 10.2794 13.5607 10.5607Z" fill="currentColor"/>
</svg>
