<svg xmlns="http://www.w3.org/2000/svg" width="25" height="24" viewBox="0 0 25 24" fill="none">
  <path d="M5.69922 5C8.09042 6.39726 9.69922 9.00885 9.69922 12C9.69922 14.9912 8.09042 17.6027 5.69922 19M2.5 9C3.71356 9.7937 4.5 11.0659 4.5 12.5C4.5 13.9341 3.71356 15.2063 2.5 16M13.5 18V18.01M7.5 6V5C7.5 3.89543 8.39543 3 9.5 3H17.5C18.6046 3 19.5 3.89543 19.5 5V19C19.5 20.1046 18.6046 21 17.5 21H9.5C8.39543 21 7.5 20.1046 7.5 19V18" stroke="#5872F5" stroke-width="2" stroke-linecap="round"/>
</svg>