<svg width="24" height="24" viewBox="0 0 24 24" fill="none" xmlns="http://www.w3.org/2000/svg">
<path d="M7 20C7.55228 20 8 19.5523 8 19C8 18.4477 7.55228 18 7 18V20ZM13.25 5L13.9571 5.70711C14.3476 5.31658 14.3476 4.68342 13.9571 4.29289L13.25 5ZM10.5429 6.29289C10.1523 6.68342 10.1523 7.31658 10.5429 7.70711C10.9334 8.09763 11.5666 8.09763 11.9571 7.70711L10.5429 6.29289ZM11.9571 2.29289C11.5666 1.90237 10.9334 1.90237 10.5429 2.29289C10.1523 2.68342 10.1523 3.31658 10.5429 3.70711L11.9571 2.29289ZM5.22354 18.8978L5.48236 17.9319L5.22354 18.8978ZM3.10222 16.7765L4.06815 16.5176L3.10222 16.7765ZM4.63803 5.32698L4.18404 4.43597L4.63803 5.32698ZM3.32698 6.63803L2.43597 6.18404L3.32698 6.63803ZM17 4C16.4477 4 16 4.44771 16 5C16 5.55228 16.4477 6 17 6V4ZM10.75 19L10.0429 18.2929C9.65239 18.6834 9.65239 19.3166 10.0429 19.7071L10.75 19ZM13.4571 17.7071C13.8477 17.3166 13.8477 16.6834 13.4571 16.2929C13.0666 15.9024 12.4334 15.9024 12.0429 16.2929L13.4571 17.7071ZM12.0429 21.7071C12.4334 22.0976 13.0666 22.0976 13.4571 21.7071C13.8477 21.3166 13.8477 20.6834 13.4571 20.2929L12.0429 21.7071ZM18.7765 5.10222L18.5176 6.06815L18.7765 5.10222ZM21 9L22 9V9H21ZM20.8978 7.22354L19.9319 7.48236L20.8978 7.22354ZM16.2 19V20V19ZM19.362 18.673L19.816 19.564L19.362 18.673ZM21 14.2H20H21ZM20.673 17.362L19.782 16.908L20.673 17.362ZM3 9C2.44772 9 2 9.44772 2 10C2 10.5523 2.44772 11 3 11V9ZM21 11C21.5523 11 22 10.5523 22 10C22 9.44772 21.5523 9 21 9V11ZM11.25 7L11.9571 7.70711L13.9571 5.70711L13.25 5L12.5429 4.29289L10.5429 6.29289L11.25 7ZM13.25 5L13.9571 4.29289L11.9571 2.29289L11.25 3L10.5429 3.70711L12.5429 5.70711L13.25 5ZM7.8 5V6H13.25V5V4H7.8V5ZM3 15H4V9.8H3H2V15H3ZM7 19V18C6.00565 18 5.70464 17.9914 5.48236 17.9319L5.22354 18.8978L4.96472 19.8637C5.50545 20.0086 6.13441 20 7 20V19ZM3 15H2C2 15.8656 1.99141 16.4946 2.1363 17.0353L3.10222 16.7765L4.06815 16.5176C4.00859 16.2954 4 15.9944 4 15H3ZM5.22354 18.8978L5.48236 17.9319C4.79218 17.7469 4.25308 17.2078 4.06815 16.5176L3.10222 16.7765L2.1363 17.0353C2.50617 18.4156 3.58436 19.4938 4.96472 19.8637L5.22354 18.8978ZM7.8 5V4C6.97642 4 6.2986 3.99922 5.74817 4.04419C5.18608 4.09012 4.66937 4.18868 4.18404 4.43597L4.63803 5.32698L5.09202 6.21799C5.24842 6.1383 5.47262 6.07337 5.91104 6.03755C6.36113 6.00078 6.94342 6 7.8 6V5ZM3 9.8H4C4 8.94342 4.00078 8.36113 4.03755 7.91104C4.07337 7.47262 4.1383 7.24842 4.21799 7.09202L3.32698 6.63803L2.43597 6.18404C2.18868 6.66937 2.09012 7.18608 2.04419 7.74817C1.99922 8.2986 2 8.97642 2 9.8H3ZM4.63803 5.32698L4.18404 4.43597C3.43139 4.81947 2.81947 5.43139 2.43597 6.18404L3.32698 6.63803L4.21799 7.09202C4.40973 6.71569 4.71569 6.40973 5.09202 6.21799L4.63803 5.32698ZM12.75 17L12.0429 16.2929L10.0429 18.2929L10.75 19L11.4571 19.7071L13.4571 17.7071L12.75 17ZM10.75 19L10.0429 19.7071L12.0429 21.7071L12.75 21L13.4571 20.2929L11.4571 18.2929L10.75 19ZM16.2 19V18L10.75 18V19V20L16.2 20V19ZM21 9L20 9L20 14.2H21H22L22 9L21 9ZM17 5V6C17.9944 6 18.2954 6.00859 18.5176 6.06815L18.7765 5.10222L19.0353 4.1363C18.4946 3.99141 17.8656 4 17 4V5ZM21 9H22C22 8.13441 22.0086 7.50545 21.8637 6.96472L20.8978 7.22354L19.9319 7.48236C19.9914 7.70464 20 8.00565 20 9H21ZM18.7765 5.10222L18.5176 6.06815C19.2078 6.25308 19.7469 6.79218 19.9319 7.48236L20.8978 7.22354L21.8637 6.96472C21.4938 5.58436 20.4156 4.50616 19.0353 4.1363L18.7765 5.10222ZM16.2 19V20C17.0236 20 17.7014 20.0008 18.2518 19.9558C18.8139 19.9099 19.3306 19.8113 19.816 19.564L19.362 18.673L18.908 17.782C18.7516 17.8617 18.5274 17.9266 18.089 17.9624C17.6389 17.9992 17.0566 18 16.2 18V19ZM21 14.2H20C20 15.0566 19.9992 15.6389 19.9624 16.089C19.9266 16.5274 19.8617 16.7516 19.782 16.908L20.673 17.362L21.564 17.816C21.8113 17.3306 21.9099 16.8139 21.9558 16.2518C22.0008 15.7014 22 15.0236 22 14.2H21ZM19.362 18.673L19.816 19.564C20.5686 19.1805 21.1805 18.5686 21.564 17.816L20.673 17.362L19.782 16.908C19.5903 17.2843 19.2843 17.5903 18.908 17.782L19.362 18.673ZM3 10V11H21V10V9H3V10Z" fill="currentColor" stroke-width="2" stroke-linecap="round" stroke-linejoin="round"/>
</svg>
