<svg width="24" height="24" viewBox="0 0 24 24" fill="none" xmlns="http://www.w3.org/2000/svg">
<path d="M6.7411 14.9659C5.1407 14.5371 4.19096 12.8921 4.61978 11.2917L5.65506 7.42799C5.798 6.89452 6.34634 6.57794 6.8798 6.72088L10.7435 7.75616C11.277 7.8991 11.5936 8.44744 11.4506 8.9809L10.4153 12.8446C9.98651 14.445 8.3415 15.3948 6.7411 14.9659ZM6.7411 14.9659L5.1882 20.7615M5.1882 20.7615L3.25635 20.2438M5.1882 20.7615L7.12005 21.2791M17.2587 14.9659C15.6583 15.3948 14.0133 14.445 13.5845 12.8446L12.5492 8.9809C12.4063 8.44744 12.7229 7.8991 13.2563 7.75616L17.12 6.72088C17.6535 6.57794 18.2018 6.89452 18.3448 7.42799L19.38 11.2917C19.8089 12.8921 18.8591 14.5371 17.2587 14.9659ZM17.2587 14.9659L18.8117 20.7615M18.8117 20.7615L16.8798 21.2791M18.8117 20.7615L20.7435 20.2438M11.9999 4V2M14.9999 4L15.9999 3M8.99993 4L7.99993 3" stroke="currentColor" stroke-width="2" stroke-linecap="round"/>
</svg>
