<svg width="24" height="24" viewBox="0 0 24 24" fill="none" xmlns="http://www.w3.org/2000/svg">
<path d="M2 14.9141V17.9141C2 20.1232 3.79086 21.9141 6 21.9141H8.36364M15.6364 21.9141H18C20.2091 21.9141 22 20.1232 22 17.9141V14.9141M2 8.91406V5.91406C2 3.70492 3.79086 1.91406 6 1.91406H8.36364M15.6364 1.91406H18C20.2091 1.91406 22 3.70492 22 5.91406V8.91406M8 7.91406V9.91406M16 7.91406V9.91406M12 7.91406V11.4141C12 11.9141 11.7 12.9141 10.5 12.9141M9 16.4141C9.83333 17.1915 12.5 18.2094 15 16.4141" stroke="currentColor" stroke-width="2" stroke-linecap="round"/>
</svg>
