<svg width="24" height="24" viewBox="0 0 24 24" fill="none" xmlns="http://www.w3.org/2000/svg">
<path d="M9.04999 22.9937H9.02745V13.4943H6.59873C6.44512 13.4946 6.29759 13.4343 6.18827 13.3264C6.07895 13.2184 6.01668 13.0717 6.01503 12.9181L6 9.8581C6.00033 9.7034 6.06193 9.55512 6.17133 9.44573C6.28072 9.33634 6.42899 9.27474 6.58369 9.27441H9.04248V6.31585C8.97218 5.61464 9.05605 4.90653 9.28823 4.24115C9.52041 3.57577 9.89528 2.96921 10.3866 2.46396C10.8779 1.95871 11.4737 1.567 12.1323 1.31627C12.7909 1.06554 13.4964 0.96186 14.1993 1.01249H16.7132C16.8679 1.01282 17.0162 1.07443 17.1255 1.18382C17.2349 1.29321 17.2965 1.44148 17.2969 1.59619V4.17897C17.2969 4.33378 17.2354 4.48224 17.1259 4.59171C17.0164 4.70117 16.868 4.76267 16.7132 4.76267H15.1675C13.4991 4.76267 13.1759 5.55429 13.1759 6.71416V9.27315H16.8334C16.9158 9.27344 16.9972 9.29117 17.0723 9.32518C17.1473 9.35919 17.2144 9.4087 17.2689 9.47046C17.3234 9.53223 17.3643 9.60484 17.3888 9.68353C17.4132 9.76221 17.4208 9.84519 17.4109 9.92699L17.0501 12.987C17.0333 13.1284 16.9652 13.2587 16.8588 13.3533C16.7524 13.448 16.6151 13.5003 16.4727 13.5006H13.191L13.1759 23L9.04999 22.9925" stroke="currentColor" stroke-width="2" stroke-linejoin="round"/>
</svg>
