<svg width="24" height="24" viewBox="0 0 24 24" fill="none" xmlns="http://www.w3.org/2000/svg">
<path d="M15 6V8.08579C15 8.351 14.8946 8.60536 14.7071 8.79289L13.1716 10.3284M15 6C14.4477 6 14 5.55228 14 5V4C14 3.44772 14.4477 3 15 3H19C19.5523 3 20 3.44772 20 4V5C20 5.55228 19.5523 6 19 6M15 6H19M19 6V8.08579C19 8.351 19.1054 8.60536 19.2929 8.79289L20.8284 10.3284C21.5786 11.0786 22 12.096 22 13.1569V19C22 20.1046 21.1046 21 20 21H14C13.7045 21 13.424 20.9359 13.1716 20.8209C12.876 20.6862 12.6189 20.4816 12.4215 20.2283M7.91421 5.67157L9.32843 7.08578C10.1095 7.86683 10.1095 9.13316 9.32843 9.91421C8.9379 10.3047 8.30474 10.3047 7.91421 9.91421L6.5 8.5C5.71895 7.71895 5.71895 6.45262 6.5 5.67157C6.89052 5.28104 7.52369 5.28104 7.91421 5.67157ZM9.48507 20.6213L10.7057 20.9264C10.897 20.9742 11.0986 20.9606 11.2817 20.8873L12.6815 20.3274C14.6858 19.5257 16 17.5845 16 15.4259V14.8446C16 13.386 15.2486 12.0304 14.0118 11.2574L13.9673 11.2296C13.6614 11.0384 13.3361 10.8905 13 10.7863C11.9937 10.4743 10.8912 10.5544 9.92497 11.0375C9.34269 11.3287 8.65731 11.3287 8.07503 11.0375C6.78611 10.3931 5.2547 10.4658 4.03269 11.2296L3.98819 11.2574C2.75136 12.0304 2 13.386 2 14.8446V15.4259C2 17.5845 3.31423 19.5257 5.31846 20.3274L6.71831 20.8873C6.90144 20.9606 7.10299 20.9742 7.29433 20.9264L8.51493 20.6213C8.83341 20.5416 9.16659 20.5416 9.48507 20.6213Z" stroke="currentColor" stroke-width="2"/>
</svg>
