<svg width="24" height="24" stroke="currentColor" viewBox="0 0 24 24" fill="none" xmlns="http://www.w3.org/2000/svg">
<path fill-rule="evenodd" clip-rule="evenodd" d="M15.3339 5.32764C15.1909 4.79417 15.5075 4.24584 16.041 4.10289C17.6415 3.67405 19.2863 4.6249 19.7134 6.22584L21.6536 13.4989C21.6656 13.5439 21.6744 13.5891 21.68 13.6341C21.8863 14.1557 21.9997 14.7242 21.9997 15.3191C21.9997 17.8505 19.9476 19.9025 17.4163 19.9025C15.1105 19.9025 13.2023 18.1997 12.8807 15.9829H11.119C10.7974 18.1997 8.88922 19.9025 6.58333 19.9025C4.05203 19.9025 2 17.8505 2 15.3191C2 14.7237 2.11354 14.1548 2.32016 13.6329C2.32578 13.5883 2.33447 13.5435 2.34638 13.4989L4.28662 6.22584C4.7137 4.6249 6.35855 3.67405 7.95901 4.10289C8.49248 4.24584 8.80906 4.79417 8.66612 5.32764C8.52318 5.86111 7.97484 6.17769 7.44138 6.03475C6.90867 5.89201 6.36119 6.20849 6.21904 6.74136L5.08677 10.9857C5.55578 10.8238 6.05928 10.7358 6.58333 10.7358C8.64981 10.7358 10.3969 12.1034 10.9688 13.9829H13.0309C13.6028 12.1034 15.3499 10.7358 17.4163 10.7358C17.9405 10.7358 18.4442 10.8238 18.9133 10.9858L17.781 6.74136C17.6388 6.20849 17.0913 5.89201 16.5586 6.03475C16.0252 6.17769 15.4768 5.86111 15.3339 5.32764ZM6.58333 17.9025C8.01007 17.9025 9.16667 16.7459 9.16667 15.3191C9.16667 13.8924 8.01007 12.7358 6.58333 12.7358C5.1566 12.7358 4 13.8924 4 15.3191C4 16.7459 5.1566 17.9025 6.58333 17.9025ZM17.4163 17.9025C18.8431 17.9025 19.9997 16.7459 19.9997 15.3191C19.9997 13.8924 18.8431 12.7358 17.4163 12.7358C15.9896 12.7358 14.833 13.8924 14.833 15.3191C14.833 16.7459 15.9896 17.9025 17.4163 17.9025Z"/>
</svg>
