<svg width="24" height="24" viewBox="0 0 24 24" fill="none" xmlns="http://www.w3.org/2000/svg">
<path d="M10.085 16H13.9147M21 15.5C21 17.433 19.433 19 17.5 19C15.567 19 14 17.433 14 15.5C14 13.567 15.567 12 17.5 12C19.433 12 21 13.567 21 15.5ZM10 15.5C10 17.433 8.433 19 6.5 19C4.567 19 3 17.433 3 15.5C3 13.567 4.567 12 6.5 12C8.433 12 10 13.567 10 15.5Z" stroke="currentColor" stroke-width="2"/>
<path d="M20.9898 15.0027L18.7101 6.46207C18.4297 5.41135 17.3501 4.78735 16.2996 5.06882M3.00977 15.0027L5.28948 6.46207C5.56995 5.41135 6.64954 4.78735 7.7 5.06882" stroke="currentColor" stroke-width="2" stroke-linecap="round" stroke-linejoin="round"/>
</svg>
