<svg width="24" height="24" viewBox="0 0 24 24" fill="none" xmlns="http://www.w3.org/2000/svg">
<g clip-path="url(#clip0_3408_587)">
<path d="M5.84139 22.3217C5.84109 22.5012 5.76965 22.6733 5.64273 22.8002C5.51581 22.9271 5.34375 22.9985 5.16426 22.9988H2.29196C2.11238 22.9988 1.94015 22.9275 1.81316 22.8005C1.68618 22.6735 1.61484 22.5013 1.61484 22.3217V10.28C1.61514 10.1005 1.68658 9.92842 1.8135 9.8015C1.94042 9.67458 2.11247 9.60314 2.29196 9.60284H5.16196C5.34154 9.60284 5.51377 9.67418 5.64075 9.80116C5.76774 9.92815 5.83908 10.1004 5.83908 10.28V22.3217H5.84139ZM3.73158 6.46314C3.19132 6.46314 2.6632 6.30294 2.214 6.00279C1.76479 5.70264 1.41468 5.27603 1.20793 4.7769C1.00119 4.27777 0.947088 3.72854 1.05249 3.19867C1.15788 2.6688 1.41804 2.18208 1.80006 1.80006C2.18208 1.41804 2.6688 1.15789 3.19867 1.05249C3.72854 0.947089 4.27778 1.00118 4.77691 1.20793C5.27603 1.41468 5.70264 1.76479 6.00279 2.21399C6.30294 2.6632 6.46314 3.19132 6.46314 3.73157C6.46314 4.45603 6.17536 5.15082 5.66309 5.66309C5.15082 6.17536 4.45603 6.46314 3.73158 6.46314ZM22.8604 22.3771C22.8601 22.5422 22.7944 22.7005 22.6776 22.8172C22.5609 22.934 22.4026 22.9997 22.2375 23H19.1587C18.9936 22.9997 18.8354 22.934 18.7186 22.8172C18.6018 22.7005 18.5361 22.5422 18.5358 22.3771V17.5C18.5358 16.6556 18.7815 13.8087 16.3349 13.8087C14.4338 13.8087 14.0497 15.7582 13.9724 16.6325V22.3702C13.9721 22.5353 13.9064 22.6935 13.7896 22.8103C13.6729 22.927 13.5146 22.9928 13.3495 22.9931H10.3653C10.2005 22.9925 10.0427 22.9266 9.92635 22.8098C9.81003 22.6931 9.74472 22.535 9.74472 22.3702V10.2257C9.74472 10.0609 9.81003 9.90285 9.92635 9.7861C10.0427 9.66935 10.2005 9.60345 10.3653 9.60284H13.3495C13.5146 9.60314 13.6729 9.66887 13.7896 9.78562C13.9064 9.90237 13.9721 10.0606 13.9724 10.2257V11.2732C14.4017 10.6267 15 10.1103 15.7023 9.78019C16.4046 9.45009 17.1839 9.31893 17.9556 9.40097C22.8904 9.40097 22.8616 14.0151 22.8616 16.5529V22.3806L22.8604 22.3771Z" stroke="currentColor" stroke-width="2" stroke-linejoin="round"/>
</g>
<defs>
<clipPath id="clip0_3408_587">
<rect width="24" height="24" fill="white"/>
</clipPath>
</defs>
</svg>
