<svg width="24" height="24" viewBox="0 0 24 24" fill="none" xmlns="http://www.w3.org/2000/svg">
<path d="M6 3L18 21" stroke="currentColor" stroke-width="2" stroke-linecap="round"/>
<path fill-rule="evenodd" clip-rule="evenodd" d="M3 18C3 18.5523 3.44772 19 4 19C4.55228 19 5 18.5523 5 18L5 6C5 5.44771 4.55228 5 4 5C3.44771 5 3 5.44771 3 6V18ZM7 18C7 18.5523 7.44772 19 8 19C8.55228 19 9 18.5523 9 18L9 11.9604L7 8.84926L7 18ZM7 5.99988C7.3286 6.00019 7.65028 6.16228 7.84118 6.45924L9 8.26185V6C9 5.44771 8.55228 5 8 5C7.44776 5 7.00006 5.44765 7 5.99988ZM11 15.0715V18C11 18.5523 11.4477 19 12 19C12.497 19 12.9094 18.6374 12.9869 18.1622L11 15.0715ZM13 14.4841L11 11.373V6C11 5.44771 11.4477 5 12 5C12.5523 5 13 5.44771 13 6L13 14.4841ZM15.8999 18.9951L15 17.5952L15 6C15 5.44771 15.4477 5 16 5C16.5523 5 17 5.44771 17 6L17 18C17 18.5523 16.5523 19 16 19C15.9662 19 15.9328 18.9983 15.8999 18.9951ZM19 18C19 18.5523 19.4477 19 20 19C20.5523 19 21 18.5523 21 18V6C21 5.44771 20.5523 5 20 5C19.4477 5 19 5.44771 19 6L19 18Z" fill="currentColor"/>
</svg>
