<svg width="24" height="24" viewBox="0 0 24 24" fill="none" xmlns="http://www.w3.org/2000/svg">
<g clip-path="url(#clip0)">
<line x1="7.82959" y1="8.70178" x2="14.4461" y2="8.70178" stroke="currentColor" stroke-width="2" stroke-linecap="round"/>
<line x1="7.82959" y1="11.5739" x2="14.4461" y2="11.5739" stroke="currentColor" stroke-width="2" stroke-linecap="round"/>
<line x1="7.82959" y1="14.4462" x2="12.5313" y2="14.4462" stroke="currentColor" stroke-width="2" stroke-linecap="round"/>
</g>
<line x1="16.4461" y1="19.2331" x2="20.1905" y2="19.2331" stroke="currentColor" stroke-width="2" stroke-linecap="round"/>
<line x1="18.2757" y1="21.1479" x2="18.2757" y2="17.4035" stroke="currentColor" stroke-width="2" stroke-linecap="round"/>
<path d="M12.5739 20.2757C13.1262 20.2757 13.5739 19.828 13.5739 19.2757C13.5739 18.7234 13.1262 18.2757 12.5739 18.2757V20.2757ZM17.3183 13.5313C17.3183 14.0836 17.766 14.5313 18.3183 14.5313C18.8706 14.5313 19.3183 14.0836 19.3183 13.5313H17.3183ZM5.87218 4.9574H16.4035V2.9574H5.87218V4.9574ZM4.9574 17.3609V5.87218H2.9574V17.3609H4.9574ZM12.5739 18.2757H5.87218V20.2757H12.5739V18.2757ZM17.3183 5.87218V13.5313H19.3183V5.87218H17.3183ZM2.9574 17.3609C2.9574 18.9707 4.26239 20.2757 5.87218 20.2757V18.2757C5.36696 18.2757 4.9574 17.8661 4.9574 17.3609H2.9574ZM16.4035 4.9574C16.9087 4.9574 17.3183 5.36696 17.3183 5.87218H19.3183C19.3183 4.26239 18.0133 2.9574 16.4035 2.9574V4.9574ZM5.87218 2.9574C4.26239 2.9574 2.9574 4.26239 2.9574 5.87218H4.9574C4.9574 5.36696 5.36696 4.9574 5.87218 4.9574V2.9574Z" fill="currentColor"/>
<defs>
<clipPath id="clip0">
<rect width="8.61654" height="7.65915" fill="white" transform="translate(6.82959 7.78699)"/>
</clipPath>
</defs>
</svg>
