<svg width="24" height="24" viewBox="0 0 24 24" fill="none" xmlns="http://www.w3.org/2000/svg">
<line x1="4" y1="10" x2="5" y2="10" stroke="currentColor" stroke-width="2" stroke-linecap="round"/>
<line x1="2" y1="14" x2="5" y2="14" stroke="currentColor" stroke-width="2" stroke-linecap="round"/>
<path d="M10.5714 4H8.85714C8.38376 4 8 4.35817 8 4.8V19.2C8 19.6418 8.38376 20 8.85714 20H15.2857C17.8893 20 20 18.0301 20 15.6C20 13.7506 18.7143 12.4 16.9607 11.4858C18.2634 10.7996 19.1429 9.49565 19.1429 8C19.1429 5.79086 17.2241 4 14.8571 4H9.71429" stroke="currentColor" stroke-width="2" stroke-linejoin="bevel"/>
<path d="M13 9L13 15" stroke="currentColor" stroke-width="2" stroke-miterlimit="10"/>
<path d="M13 9H13.01M13 15H13.01" stroke="currentColor" stroke-width="3" stroke-linecap="round" stroke-linejoin="round"/>
</svg>