<svg width="24" height="24" viewBox="0 0 24 24" fill="none" xmlns="http://www.w3.org/2000/svg">
<path d="M6.2674 14.9861L8.43827 13.2494C9.44923 12.4406 10.7053 12 12 12C13.2947 12 14.5508 12.4406 15.5617 13.2494L17.7326 14.9861C18.5337 15.6269 19 16.5972 19 17.623V17.7639C19 19.5512 17.5512 21 15.7639 21C15.2616 21 14.7661 20.883 14.3167 20.6584L13.8944 20.4472C13.3062 20.1531 12.6576 20 12 20C11.3424 20 10.6938 20.1531 10.1056 20.4472L9.68329 20.6584C9.23395 20.883 8.73846 21 8.23608 21C6.44885 21 5.00001 19.5512 5.00001 17.7639V17.623C5.00001 16.5972 5.46633 15.6269 6.2674 14.9861Z" stroke="currentColor" stroke-width="2" stroke-linecap="round" stroke-linejoin="round"/>
<path d="M18.402 9.73205C17.8497 10.6886 17.9836 11.7999 18.701 12.2141C19.4185 12.6283 20.4478 12.1886 21.0001 11.2321C21.5524 10.2755 21.4185 9.16421 20.701 8.75C19.9836 8.33579 18.9543 8.77547 18.402 9.73205Z" stroke="currentColor" stroke-width="2" stroke-linecap="round" stroke-linejoin="round"/>
<path d="M5.59815 9.73205C6.15043 10.6886 6.01655 11.7999 5.29911 12.2141C4.58167 12.6283 3.55236 12.1886 3.00007 11.2321C2.44779 10.2755 2.58167 9.16421 3.29911 8.75C4.01655 8.33579 5.04586 8.77547 5.59815 9.73205Z" stroke="currentColor" stroke-width="2" stroke-linecap="round" stroke-linejoin="round"/>
<path d="M13.3599 5.8625C12.9311 7.4629 13.4484 8.99203 14.5153 9.27792C15.5822 9.5638 16.7948 8.49818 17.2236 6.89778C17.6524 5.29738 17.1352 3.76825 16.0682 3.48236C15.0013 3.19648 13.7887 4.2621 13.3599 5.8625Z" stroke="currentColor" stroke-width="2" stroke-linecap="round" stroke-linejoin="round"/>
<path d="M10.6402 5.8625C11.069 7.4629 10.5517 8.99203 9.48478 9.27792C8.41784 9.5638 7.20529 8.49817 6.77647 6.89778C6.34764 5.29738 6.86493 3.76824 7.93186 3.48236C8.99879 3.19648 10.2113 4.2621 10.6402 5.8625Z" stroke="currentColor" stroke-width="2" stroke-linecap="round" stroke-linejoin="round"/>
</svg>
