<svg width="24" height="24" viewBox="0 0 24 24" fill="none" xmlns="http://www.w3.org/2000/svg">
<path d="M12 12C13.2107 12 14.1116 12.3961 14.8496 12.9736C15.0106 13.0996 15.1611 13.2315 15.2979 13.3594L15.665 13.7188L15.666 13.7197L15.7803 13.8359L15.7812 13.8369C15.9633 14.0214 16.1188 14.1782 16.2939 14.3389L16.3086 14.3525L16.3232 14.3652L16.3369 14.3799L16.3516 14.3936C16.8332 14.8723 17.1913 15 17.5 15C17.9497 15 18.5485 14.7531 18.9102 14.3936L18.9307 14.373L18.9521 14.3525L18.9736 14.334L19.5654 13.8096L20.7344 12.6416C21.0886 12.2873 21.0886 11.7127 20.7344 11.3584L19.5664 10.1904L18.9746 9.66602L18.9531 9.64746L18.9121 9.60645C18.5509 9.24742 17.9504 9.00004 17.5 9C17.1927 9 16.8369 9.1261 16.3564 9.60254C16.2636 9.69751 16.1651 9.80188 16.0557 9.91797C15.7306 10.2629 15.299 10.7241 14.8359 11.0732C14.0694 11.6512 13.1645 12 12 12ZM12 12C10.8354 12 9.92967 12.3488 9.16309 12.9268C8.70008 13.2759 8.26842 13.7372 7.94336 14.082C7.83403 14.198 7.73632 14.3026 7.64355 14.3975C7.16305 14.874 6.80727 15 6.5 15C6.04964 15 5.44908 14.7526 5.08789 14.3936L5.04688 14.3525L5.02539 14.334L4.43457 13.8105L3.26562 12.6416C2.91139 12.2873 2.91139 11.7127 3.26562 11.3584L4.42871 10.1953L5.02637 9.66699L5.04785 9.64746L5.06836 9.62695L5.08984 9.60645C5.45156 9.24693 6.05037 9 6.5 9C6.80869 9.00003 7.16689 9.12775 7.64844 9.60645L7.67676 9.63477L7.69141 9.64844L7.70605 9.66113C7.79364 9.74149 7.87659 9.821 7.95996 9.90332L8.21875 10.1641L8.33398 10.2803L8.33496 10.2812C8.5499 10.4981 8.82864 10.7746 9.15039 11.0264C9.8884 11.6039 10.7893 12 12 12ZM12 16C12.1426 16 12.2057 16.0186 12.2324 16.0283C12.2594 16.0382 12.3003 16.0579 12.3848 16.124C12.4892 16.2058 12.613 16.3221 12.8242 16.5352V16.5342L12.9248 16.6367C13.1003 16.8147 13.3231 17.0401 13.5732 17.2705C13.9849 17.6738 14.4649 18.0557 15.0176 18.3574L12.6416 20.7344C12.2873 21.0886 11.7127 21.0886 11.3584 20.7344L8.98047 18.3564C9.5517 18.0445 10.0462 17.6486 10.4668 17.2305L10.4717 17.2266L10.4805 17.2178L10.4844 17.2129C10.6796 17.0139 10.8405 16.8435 10.9756 16.7002C11.274 16.3836 11.4128 16.2396 11.5713 16.1201C11.6451 16.0645 11.6871 16.0453 11.7227 16.0332C11.7611 16.0202 11.84 16 12 16ZM11.3584 3.26562C11.7127 2.91139 12.2873 2.91139 12.6416 3.26562L15.0186 5.64258C14.4475 5.95445 13.9538 6.35148 13.5332 6.76953H13.5322L13.5244 6.77832L13.5156 6.78711C13.3204 6.98606 13.1595 7.15648 13.0244 7.2998C12.726 7.61647 12.5862 7.76038 12.4277 7.87988C12.3542 7.9353 12.3128 7.95472 12.2773 7.9668C12.239 7.97983 12.1602 7.99999 12 8C11.8574 8 11.7943 7.9814 11.7676 7.97168C11.7406 7.96185 11.6996 7.94295 11.6152 7.87695C11.5107 7.79518 11.3861 7.67805 11.1748 7.46484L11.0752 7.36328C10.8995 7.18514 10.6762 6.95917 10.4258 6.72852C10.014 6.32521 9.53335 5.94418 8.98047 5.64258L11.3584 3.26562Z" stroke="currentColor" stroke-width="2"/>
</svg>
