<svg width="24" height="24" viewBox="0 0 24 24" fill="none" xmlns="http://www.w3.org/2000/svg">
<path d="M16.0001 12V11C16.0001 9.89543 16.8955 9 18.0001 9C19.1047 9 20.0001 9.89543 20.0001 11V12M16.0001 12C16.0001 13.1046 16.8955 14 18.0001 14C19.1047 14 20.0001 13.1046 20.0001 12M16.0001 12V10C16.0001 8.89543 15.1047 8 14.0001 8C12.8955 8 12.0001 8.89543 12.0001 10V12M16.0001 12C16.0001 13.1046 15.1047 14 14.0001 14C12.8955 14 12.0001 13.1046 12.0001 12M20.0001 12V15C20.0001 18.866 16.8661 22 13.0001 22H10.0001C6.13635 22 3.0063 18.8638 3.01393 15L3.01393 14C3.01393 12.8954 3.90936 12 5.01393 12L10.007 12C11.1116 12 12.007 12.8954 12.007 14C12.007 15.1046 11.1116 16 10.007 16L7.00998 16M12.0001 12V9C12.0001 7.89543 11.1047 7 10.0001 7C8.89553 7 8.0001 7.89543 8.0001 9V12M12.0001 12H8.0001M8.0001 12L8.0001 4C8.0001 2.89543 7.10467 2 6.0001 2C4.89553 2 4.0001 2.89543 4.0001 4V12H8.0001Z" stroke="currentColor" stroke-width="2" stroke-linecap="round"/>
</svg>
