<svg width="24" height="24" viewBox="0 0 24 24" fill="none" xmlns="http://www.w3.org/2000/svg">
<path d="M21 22C21.5523 22 22 21.5523 22 21C22 20.4477 21.5523 20 21 20V22ZM20 21V22V21ZM3 20C2.44772 20 2 20.4477 2 21C2 21.5523 2.44772 22 3 22V20ZM4 4.23077L3 4.23077L4 4.23077ZM5 3V2V3ZM19 3V4V3ZM20 4.23077L21 4.23077L20 4.23077ZM9 16L9 17H9V16ZM10 17C10.5523 17 11 16.5523 11 16C11 15.4477 10.5523 15 10 15V17ZM8 15H7H8ZM9 14C9 13.4477 8.55229 13 8 13C7.44772 13 7 13.4477 7 14H9ZM15 8L15 7H15V8ZM14 7C13.4477 7 13 7.44771 13 8C13 8.55228 13.4477 9 14 9V7ZM16 9H15H16ZM15 10C15 10.5523 15.4477 11 16 11C16.5523 11 17 10.5523 17 10H15ZM21 20H20V22H21V20ZM20 20L4 20L4 22L20 22V20ZM4 20H3V22H4V20ZM5 21L5 4.23077L3 4.23077L3 21H5ZM5 4.23077C5 4.1101 5.04069 4.02592 5.06901 3.99107L3.51678 2.72989C3.17002 3.15667 3 3.69859 3 4.23077L5 4.23077ZM5.06901 3.99107C5.08115 3.97613 5.08428 3.97808 5.0715 3.98459C5.05782 3.99157 5.03273 4 5 4V2C4.39463 2 3.86814 2.29744 3.51678 2.72989L5.06901 3.99107ZM5 4L19 4V2L5 2V4ZM19 4C18.9673 4 18.9422 3.99157 18.9285 3.9846C18.9157 3.97808 18.9189 3.97613 18.931 3.99108L20.4832 2.72989C20.1319 2.29744 19.6054 2 19 2V4ZM18.931 3.99108C18.9593 4.02592 19 4.11011 19 4.23077L21 4.23077C21 3.69859 20.83 3.15667 20.4832 2.72989L18.931 3.99108ZM19 4.23077L19 21H21L21 4.23077L19 4.23077ZM14 14H15V12H14V14ZM15 14V15H17V14H15ZM15 15H14V17H15V15ZM14 15V14H12V15H14ZM14 15H12C12 16.1046 12.8954 17 14 17V15ZM15 15V15V17C16.1046 17 17 16.1046 17 15H15ZM15 14H17C17 12.8954 16.1046 12 15 12V14ZM14 12C12.8954 12 12 12.8954 12 14H14V12ZM9 9H10V7H9V9ZM10 9V10H12V9H10ZM10 10H9V12H10V10ZM9 10V9H7V10H9ZM9 10H7C7 11.1046 7.89543 12 9 12V10ZM10 10V12C11.1046 12 12 11.1046 12 10H10ZM10 9H12C12 7.89543 11.1046 7 10 7V9ZM9 7C7.89543 7 7 7.89543 7 9H9V7ZM9 17H10V15H9V17ZM9 15V14H7V15H9ZM9 15L9 15H7C7 16.1046 7.89543 17 9 17L9 15ZM15 7H14V9H15V7ZM15 9V10H17V9H15ZM15 9L15 9H17C17 7.89543 16.1046 7 15 7L15 9Z" fill="currentColor"/>
</svg>
