<svg width="24" height="24" viewBox="0 0 24 24" fill="none" xmlns="http://www.w3.org/2000/svg">
  <path d="M19 20C19.5523 20 20 19.5523 20 19C20 18.4477 19.5523 18 19 18V20ZM18 19V20V19ZM1 18C0.447715 18 0 18.4477 0 19C0 19.5523 0.447715 20 1 20V18ZM2 2.23077L1 2.23077L2 2.23077ZM3 1V0V1ZM17 1V2V1ZM18 2.23077L19 2.23077L18 2.23077ZM7 14L7 15H7V14ZM8 15C8.55229 15 9 14.5523 9 14C9 13.4477 8.55229 13 8 13V15ZM6 13H5H6ZM7 12C7 11.4477 6.55229 11 6 11C5.44772 11 5 11.4477 5 12H7ZM13 6L13 5H13V6ZM12 5C11.4477 5 11 5.44771 11 6C11 6.55228 11.4477 7 12 7V5ZM14 7H13H14ZM13 8C13 8.55228 13.4477 9 14 9C14.5523 9 15 8.55228 15 8H13ZM19 18H18V20H19V18ZM18 18L2 18L2 20L18 20V18ZM2 18H1V20H2V18ZM3 19L3 2.23077L1 2.23077L1 19H3ZM3 2.23077C3 2.1101 3.04069 2.02592 3.06901 1.99107L1.51678 0.729889C1.17002 1.15667 1 1.69859 1 2.23077L3 2.23077ZM3.06901 1.99107C3.08115 1.97613 3.08428 1.97808 3.0715 1.98459C3.05782 1.99157 3.03273 2 3 2V0C2.39463 0 1.86814 0.29744 1.51678 0.729889L3.06901 1.99107ZM3 2L17 2V1.2517e-06L3 0V2ZM17 2C16.9673 2 16.9422 1.99157 16.9285 1.9846C16.9157 1.97808 16.9189 1.97613 16.931 1.99108L18.4832 0.72989C18.1319 0.297443 17.6054 1.2517e-06 17 1.2517e-06V2ZM16.931 1.99108C16.9593 2.02592 17 2.11011 17 2.23077L19 2.23077C19 1.69859 18.83 1.15667 18.4832 0.72989L16.931 1.99108ZM17 2.23077L17 19H19L19 2.23077L17 2.23077ZM12 12H13V10H12V12ZM13 12V13H15V12H13ZM13 13H12V15H13V13ZM12 13V12H10V13H12ZM12 13H10C10 14.1046 10.8954 15 12 15V13ZM13 13V13V15C14.1046 15 15 14.1046 15 13H13ZM13 12H15C15 10.8954 14.1046 10 13 10V12ZM12 10C10.8954 10 10 10.8954 10 12H12V10ZM7 7H8V5H7V7ZM8 7V8H10V7H8ZM8 8H7V10H8V8ZM7 8V7H5V8H7ZM7 8H5C5 9.10457 5.89543 10 7 10V8ZM8 8V10C9.10457 10 10 9.10457 10 8H8ZM8 7H10C10 5.89543 9.10457 5 8 5V7ZM7 5C5.89543 5 5 5.89543 5 7H7V5ZM7 15H8V13H7V15ZM7 13V12H5V13H7ZM7 13L7 13H5C5 14.1046 5.89543 15 7 15L7 13ZM13 5H12V7H13V5ZM13 7V8H15V7H13ZM13 7L13 7H15C15 5.89543 14.1046 5 13 5L13 7Z" fill="#5872F5"/>
</svg>
