<svg width="24" height="24" viewBox="0 0 24 24" fill="none" xmlns="http://www.w3.org/2000/svg">
<path d="M5 14L4.00075 13.9613L3.99925 14L4.00075 14.0387L5 14ZM5.85 15.56L6.44386 14.7554L6.43414 14.7483L6.42425 14.7413L5.85 15.56ZM7.44 16.36L7.14785 17.3164L7.14855 17.3166L7.44 16.36ZM12 17L12.0169 16.0001L12 15.9999L11.9831 16.0001L12 17ZM16.56 16.36L16.8515 17.3166L16.8521 17.3164L16.56 16.36ZM18.15 15.56L17.5757 14.7413L17.5659 14.7483L17.5561 14.7554L18.15 15.56ZM19 14L19.9993 14.0387L20.0007 14L19.9993 13.9613L19 14ZM12 14L12.0169 13.0001L12 12.9999L11.9831 13.0001L12 14ZM16.56 13.36L16.8515 14.3166L16.8521 14.3164L16.56 13.36ZM18.15 12.56L17.5757 11.7413L17.5659 11.7483L17.5561 11.7554L18.15 12.56ZM19 11L19.9993 11.0387L20.0007 11L19.9993 10.9613L19 11ZM18.15 9.44L17.5561 10.2446L17.5659 10.2517L17.5757 10.2587L18.15 9.44ZM16.56 8.64L16.8521 7.68363L16.8515 7.68341L16.56 8.64ZM12 8L11.9831 8.99986L12 9.00014L12.0169 8.99986L12 8ZM7.44 8.64L7.14855 7.68341L7.14785 7.68363L7.44 8.64ZM5.85 9.44L6.42425 10.2587L6.43414 10.2517L6.44386 10.2446L5.85 9.44ZM5 11L4.00075 10.9613L3.99925 11L4.00075 11.0387L5 11ZM5.85 12.56L6.44386 11.7554L6.43414 11.7483L6.42425 11.7413L5.85 12.56ZM7.44 13.36L7.14785 14.3164L7.14855 14.3166L7.44 13.36ZM12 11L12.0169 10.0001L12 9.99986L11.9831 10.0001L12 11ZM16.56 10.36L16.8515 11.3166L16.8521 11.3164L16.56 10.36ZM18.15 9.56L17.5757 8.74132L17.5659 8.74826L17.5561 8.75543L18.15 9.56ZM19 8L19.9993 8.03868L20.0007 8L19.9993 7.96132L19 8ZM18.15 6.44L17.5561 7.24457L17.5659 7.25174L17.5757 7.25868L18.15 6.44ZM16.56 5.64L16.8521 4.68362L16.8515 4.68341L16.56 5.64ZM12 5L11.9831 5.99986L12 6.00014L12.0169 5.99986L12 5ZM7.44 5.64L7.14855 4.68341L7.14785 4.68363L7.44 5.64ZM5.85 6.44L6.42425 7.25868L6.43414 7.25174L6.44386 7.24457L5.85 6.44ZM5 8L4.00075 7.96132L3.99925 8L4.00075 8.03868L5 8ZM5.85 9.56L6.44386 8.75543L6.43414 8.74826L6.42425 8.74132L5.85 9.56ZM7.44 10.36L7.14785 11.3164L7.14855 11.3166L7.44 10.36ZM20 14.3C20 13.7477 19.5523 13.3 19 13.3C18.4477 13.3 18 13.7477 18 14.3H20ZM18 21C18 21.5523 18.4477 22 19 22C19.5523 22 20 21.5523 20 21H18ZM6 3C6 2.44772 5.55228 2 5 2C4.44772 2 4 2.44772 4 3H6ZM4 8.17C4 8.72228 4.44772 9.17 5 9.17C5.55228 9.17 6 8.72228 6 8.17H4ZM5.00293 17H4.00293H5.00293ZM5.85001 18.56L6.44387 17.7554L6.41974 17.7376L6.39459 17.7213L5.85001 18.56ZM7.44001 19.36L7.14786 20.3164L7.14856 20.3166L7.44001 19.36ZM12 20L12.0169 19.0001L12 18.9999L11.9831 19.0001L12 20ZM16.56 19.36L16.8515 20.3166L16.8522 20.3164L16.56 19.36ZM18.15 18.56L17.6054 17.7213L17.5803 17.7376L17.5562 17.7554L18.15 18.56ZM5.27575 11.6213C4.89731 11.8868 4.58534 12.2361 4.36417 12.642L6.12039 13.5989C6.19412 13.4636 6.29811 13.3472 6.42425 13.2587L5.27575 11.6213ZM4.36417 12.642C4.143 13.0479 4.01863 13.4994 4.00075 13.9613L5.99925 14.0387C6.00521 13.8847 6.04667 13.7342 6.12039 13.5989L4.36417 12.642ZM4.00075 14.0387C4.01863 14.5006 4.143 14.9521 4.36417 15.358L6.12039 14.4011C6.04667 14.2658 6.00521 14.1153 5.99925 13.9613L4.00075 14.0387ZM4.36417 15.358C4.58534 15.7639 4.89731 16.1132 5.27575 16.3787L6.42425 14.7413C6.29811 14.6528 6.19412 14.5364 6.12039 14.4011L4.36417 15.358ZM5.25614 16.3646C5.82818 16.7868 6.46788 17.1087 7.14785 17.3164L7.73215 15.4036C7.26907 15.2622 6.83343 15.043 6.44386 14.7554L5.25614 16.3646ZM7.14855 17.3166C8.7257 17.7971 10.3684 18.0277 12.0169 17.9999L11.9831 16.0001C10.5434 16.0244 9.10883 15.8231 7.73145 15.4034L7.14855 17.3166ZM11.9831 17.9999C13.6316 18.0277 15.2743 17.7971 16.8515 17.3166L16.2685 15.4034C14.8912 15.8231 13.4566 16.0244 12.0169 16.0001L11.9831 17.9999ZM16.8521 17.3164C17.5321 17.1087 18.1718 16.7868 18.7439 16.3646L17.5561 14.7554C17.1666 15.043 16.7309 15.2622 16.2678 15.4036L16.8521 17.3164ZM18.7243 16.3787C19.1027 16.1132 19.4147 15.7639 19.6358 15.358L17.8796 14.4011C17.8059 14.5364 17.7019 14.6528 17.5757 14.7413L18.7243 16.3787ZM19.6358 15.358C19.857 14.9521 19.9814 14.5006 19.9993 14.0387L18.0007 13.9613C17.9948 14.1153 17.9533 14.2658 17.8796 14.4011L19.6358 15.358ZM19.9993 13.9613C19.9814 13.4994 19.857 13.0479 19.6358 12.642L17.8796 13.5989C17.9533 13.7342 17.9948 13.8847 18.0007 14.0387L19.9993 13.9613ZM19.6358 12.642C19.4147 12.2361 19.1027 11.8868 18.7243 11.6213L17.5757 13.2587C17.7019 13.3472 17.8059 13.4636 17.8796 13.5989L19.6358 12.642ZM11.9831 14.9999C13.6316 15.0277 15.2743 14.7971 16.8515 14.3166L16.2685 12.4034C14.8912 12.8231 13.4566 13.0244 12.0169 13.0001L11.9831 14.9999ZM16.8521 14.3164C17.5321 14.1087 18.1718 13.7868 18.7439 13.3646L17.5561 11.7554C17.1666 12.043 16.7309 12.2622 16.2678 12.4036L16.8521 14.3164ZM18.7243 13.3787C19.1027 13.1132 19.4147 12.7639 19.6358 12.358L17.8796 11.4011C17.8059 11.5364 17.7019 11.6528 17.5757 11.7413L18.7243 13.3787ZM19.6358 12.358C19.857 11.9521 19.9814 11.5006 19.9993 11.0387L18.0007 10.9613C17.9948 11.1153 17.9533 11.2658 17.8796 11.4011L19.6358 12.358ZM19.9993 10.9613C19.9814 10.4994 19.857 10.0479 19.6358 9.64198L17.8796 10.5989C17.9533 10.7342 17.9948 10.8847 18.0007 11.0387L19.9993 10.9613ZM19.6358 9.64198C19.4147 9.23608 19.1027 8.88677 18.7243 8.62132L17.5757 10.2587C17.7019 10.3472 17.8059 10.4636 17.8796 10.5989L19.6358 9.64198ZM18.7439 8.63543C18.1718 8.2132 17.5321 7.89134 16.8521 7.68363L16.2678 9.59637C16.7309 9.73783 17.1666 9.95702 17.5561 10.2446L18.7439 8.63543ZM16.8515 7.68341C15.2743 7.20289 13.6316 6.97234 11.9831 7.00014L12.0169 8.99986C13.4566 8.97557 14.8912 9.17692 16.2685 9.59658L16.8515 7.68341ZM12.0169 7.00014C10.3684 6.97234 8.7257 7.20289 7.14855 7.68341L7.73145 9.59658C9.10884 9.17692 10.5434 8.97557 11.9831 8.99986L12.0169 7.00014ZM7.14785 7.68363C6.46788 7.89134 5.82819 8.2132 5.25614 8.63543L6.44386 10.2446C6.83343 9.95702 7.26907 9.73783 7.73215 9.59637L7.14785 7.68363ZM5.27575 8.62132C4.89731 8.88677 4.58534 9.23608 4.36417 9.64198L6.12039 10.5989C6.19412 10.4636 6.29811 10.3472 6.42425 10.2587L5.27575 8.62132ZM4.36417 9.64198C4.143 10.0479 4.01863 10.4994 4.00075 10.9613L5.99925 11.0387C6.00521 10.8847 6.04667 10.7342 6.12039 10.5989L4.36417 9.64198ZM4.00075 11.0387C4.01863 11.5006 4.143 11.9521 4.36417 12.358L6.12039 11.4011C6.04667 11.2658 6.00521 11.1153 5.99925 10.9613L4.00075 11.0387ZM4.36417 12.358C4.58534 12.7639 4.89731 13.1132 5.27575 13.3787L6.42425 11.7413C6.29811 11.6528 6.19412 11.5364 6.12039 11.4011L4.36417 12.358ZM5.25614 13.3646C5.82819 13.7868 6.46788 14.1087 7.14785 14.3164L7.73215 12.4036C7.26907 12.2622 6.83343 12.043 6.44386 11.7554L5.25614 13.3646ZM7.14855 14.3166C8.72569 14.7971 10.3684 15.0277 12.0169 14.9999L11.9831 13.0001C10.5434 13.0244 9.10884 12.8231 7.73145 12.4034L7.14855 14.3166ZM11.9831 11.9999C13.6316 12.0277 15.2743 11.7971 16.8515 11.3166L16.2685 9.40341C14.8912 9.82307 13.4566 10.0244 12.0169 10.0001L11.9831 11.9999ZM16.8521 11.3164C17.5321 11.1087 18.1718 10.7868 18.7439 10.3646L17.5561 8.75543C17.1666 9.04297 16.7309 9.26217 16.2678 9.40363L16.8521 11.3164ZM18.7243 10.3787C19.1027 10.1132 19.4147 9.76392 19.6358 9.35801L17.8796 8.4011C17.8059 8.5364 17.7019 8.65284 17.5757 8.74132L18.7243 10.3787ZM19.6358 9.35801C19.857 8.95211 19.9814 8.50058 19.9993 8.03868L18.0007 7.96132C17.9948 8.11529 17.9533 8.26579 17.8796 8.4011L19.6358 9.35801ZM19.9993 7.96132C19.9814 7.49941 19.857 7.04789 19.6358 6.64198L17.8796 7.5989C17.9533 7.7342 17.9948 7.88471 18.0007 8.03868L19.9993 7.96132ZM19.6358 6.64198C19.4147 6.23608 19.1027 5.88677 18.7243 5.62132L17.5757 7.25868C17.7019 7.34716 17.8059 7.46359 17.8796 7.5989L19.6358 6.64198ZM18.7439 5.63543C18.1718 5.2132 17.5321 4.89134 16.8521 4.68363L16.2678 6.59637C16.7309 6.73783 17.1666 6.95702 17.5561 7.24457L18.7439 5.63543ZM16.8515 4.68341C15.2743 4.20289 13.6316 3.97234 11.9831 4.00014L12.0169 5.99986C13.4566 5.97557 14.8912 6.17692 16.2685 6.59658L16.8515 4.68341ZM12.0169 4.00014C10.3684 3.97234 8.7257 4.20289 7.14855 4.68341L7.73145 6.59658C9.10883 6.17692 10.5434 5.97557 11.9831 5.99986L12.0169 4.00014ZM7.14785 4.68363C6.46788 4.89134 5.82818 5.2132 5.25614 5.63543L6.44386 7.24457C6.83343 6.95702 7.26907 6.73783 7.73215 6.59637L7.14785 4.68363ZM5.27575 5.62132C4.89731 5.88677 4.58534 6.23608 4.36417 6.64198L6.12039 7.5989C6.19412 7.46359 6.29811 7.34716 6.42425 7.25868L5.27575 5.62132ZM4.36417 6.64198C4.143 7.04789 4.01863 7.49941 4.00075 7.96132L5.99925 8.03868C6.00521 7.88471 6.04667 7.7342 6.12039 7.5989L4.36417 6.64198ZM4.00075 8.03868C4.01863 8.50058 4.143 8.95211 4.36417 9.35801L6.12039 8.4011C6.04667 8.26579 6.00521 8.11529 5.99925 7.96132L4.00075 8.03868ZM4.36417 9.35801C4.58534 9.76392 4.89731 10.1132 5.27575 10.3787L6.42425 8.74132C6.29811 8.65284 6.19412 8.5364 6.12039 8.4011L4.36417 9.35801ZM5.25614 10.3646C5.82819 10.7868 6.46788 11.1087 7.14785 11.3164L7.73215 9.40363C7.26907 9.26217 6.83343 9.04297 6.44386 8.75543L5.25614 10.3646ZM7.14855 11.3166C8.7257 11.7971 10.3684 12.0277 12.0169 11.9999L11.9831 10.0001C10.5434 10.0244 9.10884 9.82307 7.73145 9.40341L7.14855 11.3166ZM18 14.3V21H20V14.3H18ZM4 3V8.17H6V3H4ZM5.30543 14.6013C4.90562 14.8609 4.57704 15.2163 4.34956 15.6352L6.10716 16.5896C6.17556 16.4636 6.27437 16.3568 6.39459 16.2787L5.30543 14.6013ZM4.34956 15.6352C4.12208 16.0542 4.00293 16.5233 4.00293 17H6.00293C6.00293 16.8567 6.03876 16.7156 6.10716 16.5896L4.34956 15.6352ZM4.00293 17C4.00293 17.4767 4.12208 17.9458 4.34956 18.3648L6.10716 17.4104C6.03876 17.2844 6.00293 17.1433 6.00293 17H4.00293ZM4.34956 18.3648C4.57704 18.7837 4.90562 19.1391 5.30543 19.3987L6.39459 17.7213C6.27437 17.6432 6.17556 17.5364 6.10716 17.4104L4.34956 18.3648ZM5.25615 19.3646C5.8282 19.7868 6.46789 20.1087 7.14786 20.3164L7.73216 18.4036C7.26909 18.2622 6.83345 18.043 6.44387 17.7554L5.25615 19.3646ZM7.14856 20.3166C8.72571 20.7971 10.3684 21.0277 12.0169 20.9999L11.9831 19.0001C10.5435 19.0244 9.10885 18.8231 7.73147 18.4034L7.14856 20.3166ZM11.9831 20.9999C13.6316 21.0277 15.2743 20.7971 16.8515 20.3166L16.2686 18.4034C14.8912 18.8231 13.4566 19.0244 12.0169 19.0001L11.9831 20.9999ZM16.8522 20.3164C17.5321 20.1087 18.1718 19.7868 18.7439 19.3646L17.5562 17.7554C17.1666 18.043 16.7309 18.2622 16.2679 18.4036L16.8522 20.3164ZM18.6946 19.3987C19.0944 19.1391 19.423 18.7837 19.6505 18.3648L17.8929 17.4104C17.8245 17.5364 17.7257 17.6432 17.6054 17.7213L18.6946 19.3987ZM19.6505 18.3648C19.8779 17.9458 19.9971 17.4767 19.9971 17H17.9971C17.9971 17.1433 17.9613 17.2844 17.8929 17.4104L19.6505 18.3648ZM19.9971 17C19.9971 16.5233 19.8779 16.0542 19.6505 15.6352L17.8929 16.5896C17.9613 16.7156 17.9971 16.8567 17.9971 17H19.9971ZM19.6505 15.6352C19.423 15.2163 19.0944 14.8609 18.6946 14.6013L17.6054 16.2787C17.7257 16.3568 17.8245 16.4636 17.8929 16.5896L19.6505 15.6352Z" fill="currentColor"/>
</svg>
