<svg width="24" height="24" viewBox="0 0 24 24" fill="none" xmlns="http://www.w3.org/2000/svg">
<path d="M20.9048 6.4912H14.3122L13.3525 5.5316C11.163 3.34103 7.59898 3.34103 5.40949 5.5316L3.10681 7.83531C1.74806 9.19406 1.00006 11.0002 1.00006 12.9205C1.00006 16.8857 4.22566 20.1113 8.19092 20.1113H14.6191C15.7746 20.1113 16.7143 19.1716 16.7143 18.015C16.7143 17.5844 16.5834 17.1832 16.3592 16.8501C17.1753 16.563 17.7619 15.7846 17.7619 14.8722C17.7619 14.4416 17.631 14.0403 17.4068 13.7072C18.2229 13.4202 18.8095 12.6418 18.8095 11.7293C18.8095 11.348 18.7069 10.9897 18.5277 10.6817H20.9048C22.0603 10.6817 23 9.74199 23 8.58645C23 7.43092 22.0603 6.4912 20.9048 6.4912ZM20.9048 9.63514H14.0953C13.8062 9.63514 13.5715 9.86982 13.5715 10.159C13.5715 10.4481 13.8062 10.6828 14.0953 10.6828H16.7143C17.2926 10.6828 17.7619 11.1532 17.7619 11.7304C17.7619 12.3076 17.2926 12.778 16.7143 12.778H15.1429C14.8538 12.778 14.6191 13.0127 14.6191 13.3018C14.6191 13.591 14.8538 13.8256 15.1429 13.8256H15.6667C16.245 13.8256 16.7143 14.296 16.7143 14.8732C16.7143 15.4505 16.245 15.9208 15.6667 15.9208H14.6191C14.33 15.9208 14.0953 16.1555 14.0953 16.4447C14.0953 16.7338 14.33 16.9685 14.6191 16.9685C15.1974 16.9685 15.6667 17.4389 15.6667 18.0161C15.6667 18.5933 15.1974 19.0637 14.6191 19.0637H8.19092C4.80395 19.0637 2.04766 16.3074 2.04766 12.9205C2.04766 11.2799 2.68669 9.73777 3.84749 8.57703L6.15017 6.27331C7.04171 5.38285 8.21086 4.9376 9.38103 4.9376C10.5512 4.9376 11.7203 5.38285 12.6119 6.27331L12.8309 6.49228H9.90485C9.61571 6.49228 9.38103 6.72696 9.38103 7.01611C9.38103 7.30525 9.61571 7.53993 9.90485 7.53993H20.9049C21.4831 7.53993 21.9525 8.01033 21.9525 8.58753C21.9525 9.16474 21.4831 9.63514 20.9048 9.63514Z" stroke="currentColor"/>
</svg>
