<svg width="24" height="24" viewBox="0 0 24 24" fill="currentColor" xmlns="http://www.w3.org/2000/svg">
    <path d="M2.3114 8.40345L1.35693 8.10518H1.35692L2.3114 8.40345ZM3.56141 4.40345L4.51589 4.70172L3.56141 4.40345ZM7.99998 8C7.99998 7.44772 7.55227 7 6.99998 7C6.4477 7 5.99998 7.44772 5.99998 8H7.99998ZM18 8C18 7.44772 17.5523 7 17 7C16.4477 7 16 7.44772 16 8H18ZM21.6886 8.40345L22.643 8.10518V8.10518L21.6886 8.40345ZM20.4386 4.40345L19.4841 4.70172V4.70172L20.4386 4.40345ZM13 8C13 7.44772 12.5523 7 12 7C11.4477 7 11 7.44772 11 8H13ZM15 21V22C15.5523 22 16 21.5523 16 21H15ZM8.99998 21H7.99998C7.99998 21.5523 8.4477 22 8.99998 22V21ZM3.26588 8.70173L4.51589 4.70172L2.60693 4.10517L1.35693 8.10518L3.26588 8.70173ZM5.47036 4H18.5296V2H5.47036V4ZM7.99998 9V8H5.99998V9H7.99998ZM18 9V8H16V9H18ZM19 12H19.7796V10H19V12ZM22.643 8.10518L21.393 4.10517L19.4841 4.70172L20.7341 8.70173L22.643 8.10518ZM19.7796 12C21.8035 12 23.2467 10.037 22.643 8.10518L20.7341 8.70172C20.9353 9.34566 20.4542 10 19.7796 10V12ZM5.99998 9C5.99998 9.55225 5.55225 10 4.99993 10V12C6.65675 12 7.99998 10.6569 7.99998 9H5.99998ZM18.5296 4C18.967 4 19.3536 4.28425 19.4841 4.70172L21.393 4.10518C21.0017 2.85275 19.8418 2 18.5296 2V4ZM4.51589 4.70172C4.64635 4.28425 5.03298 4 5.47036 4V2C4.15821 2 2.99831 2.85275 2.60693 4.10517L4.51589 4.70172ZM16 9C16 10.6569 17.3431 12 19 12V10C18.4477 10 18 9.55228 18 9H16ZM1.35692 8.10518C0.75316 10.0372 2.19707 12 4.22073 12V10C3.54582 10 3.06474 9.3454 3.26588 8.70173L1.35692 8.10518ZM8.99998 12H9.99998V10H8.99998V12ZM13 9.00006V8H11V9.00006H13ZM9.99998 12C11.6568 12 13 10.6569 13 9.00006H11C11 9.5523 10.5523 10 9.99998 10V12ZM8.99998 10C8.4477 10 7.99998 9.55228 7.99998 9H5.99998C5.99998 10.6569 7.34313 12 8.99998 12V10ZM14 12H15V10H14V12ZM15 12C16.6568 12 18 10.6569 18 9H16C16 9.55228 15.5523 10 15 10V12ZM14 10C13.4477 10 13 9.5523 13 9.00006H11C11 10.6569 12.3432 12 14 12V10ZM2.99998 11V19.0018H4.99998V11H2.99998ZM5.99998 22H18V20H5.99998V22ZM21 19V11H19V19H21ZM18 22C19.6568 22 21 20.6569 21 19H19C19 19.5523 18.5523 20 18 20V22ZM2.99998 19.0018C2.99998 20.6598 4.34428 22 5.99998 22V20C5.44654 20 4.99998 19.5529 4.99998 19.0018H2.99998ZM2.99998 8H20.5V6H2.99998V8ZM9.99998 16H14V14H9.99998V16ZM14 16V21H16V16H14ZM15 20H8.99998V22H15V20ZM9.99998 21V16H7.99998V21H9.99998ZM14 16H16C16 14.8954 15.1046 14 14 14V16ZM9.99998 14C8.89541 14 7.99998 14.8954 7.99998 16H9.99998V14ZM4.22073 12H4.99993V10H4.22073V12Z" />
</svg>
