<svg width="25" height="24" viewBox="0 0 25 24" fill="none" xmlns="http://www.w3.org/2000/svg">
<path d="M12.6636 3C11.0983 3.00037 9.56128 3.41312 8.20954 4.19606C6.8578 4.979 5.73986 6.10404 4.97002 7.45617C4.20018 8.80829 3.80605 10.339 3.82793 11.8918C3.84981 13.4446 4.28691 14.9637 5.09454 16.294L3.5 21L8.39363 19.444C9.57401 20.0903 10.8878 20.4601 12.2344 20.5251C13.5811 20.59 14.9248 20.3484 16.1628 19.8186C17.4008 19.2889 18.5002 18.4852 19.3769 17.4689C20.2535 16.4527 20.8842 15.2509 21.2206 13.9556C21.5569 12.6602 21.5901 11.3057 21.3175 9.99572C21.0449 8.68571 20.4739 7.45495 19.648 6.39767C18.8221 5.34038 17.7633 4.48461 16.5527 3.89587C15.3421 3.30713 14.0118 3.00103 12.6636 3.001V3Z" stroke="currentColor" stroke-width="2" stroke-linejoin="round"/>
<path fill-rule="evenodd" clip-rule="evenodd" d="M10.6307 8.39298C10.4783 7.97424 10.3097 8.03604 10.1923 8.03142C10.0748 8.02681 9.94215 8.00468 9.80856 8.00006C9.70699 7.99871 9.60624 8.01908 9.51272 8.05988C9.4192 8.10069 9.33493 8.16104 9.26527 8.23711C9.07431 8.43633 8.53819 8.91503 8.50143 9.9296C8.46467 10.9442 9.14693 11.9514 9.24196 12.0925C9.33699 12.2336 10.5446 14.4325 12.551 15.3364C14.5575 16.2403 14.5682 15.9654 14.9367 15.9451C15.3052 15.9248 16.1407 15.4913 16.3245 15.0172C16.5083 14.5432 16.5244 14.13 16.4778 14.0414C16.4312 13.9529 16.2985 13.8966 16.1022 13.7859C15.9058 13.6752 14.9367 13.1403 14.7574 13.0628C14.5781 12.9853 14.4445 12.9475 14.3028 13.1486C14.1612 13.3496 13.7604 13.7988 13.6394 13.9326C13.5184 14.0663 13.4 14.0774 13.2028 13.9667C12.6211 13.7026 12.0884 13.3365 11.6285 12.8848C11.2054 12.4496 10.8474 11.9523 10.5661 11.409C10.4568 11.1978 10.5661 11.0899 10.6692 10.9912C10.7723 10.8925 10.879 10.7588 10.983 10.6417C11.0695 10.5409 11.1414 10.4278 11.1964 10.3059C11.2257 10.2504 11.241 10.1883 11.241 10.1251C11.241 10.062 11.2257 9.99986 11.1964 9.94436C11.1489 9.84106 10.7822 8.81265 10.6307 8.39298Z" fill="currentColor"/>
</svg>
