<svg width="24" height="24" viewBox="0 0 24 24" fill="none" xmlns="http://www.w3.org/2000/svg">
<path d="M12.1636 3C10.5983 3.00037 9.06128 3.41312 7.70954 4.19606C6.3578 4.979 5.23986 6.10404 4.47002 7.45617C3.70018 8.80829 3.30605 10.339 3.32793 11.8918C3.34981 13.4446 3.78691 14.9637 4.59454 16.294L3 21L7.89363 19.444C9.07401 20.0903 10.3878 20.4601 11.7344 20.5251C13.0811 20.59 14.4248 20.3484 15.6628 19.8186C16.9008 19.2889 18.0002 18.4852 18.8769 17.4689C19.7535 16.4527 20.3842 15.2509 20.7206 13.9556C21.0569 12.6602 21.0901 11.3057 20.8175 9.99572C20.5449 8.68571 19.9739 7.45495 19.148 6.39767C18.3221 5.34038 17.2633 4.48461 16.0527 3.89587C14.8421 3.30713 13.5118 3.00103 12.1636 3.001V3Z" stroke="currentColor" stroke-width="2" stroke-linejoin="round"/>
<path fill-rule="evenodd" clip-rule="evenodd" d="M10.397 7.4421C10.2256 6.97102 10.0359 7.04054 9.90381 7.03535C9.77169 7.03016 9.62242 7.00526 9.47214 7.00007C9.35786 6.99855 9.24452 7.02146 9.13931 7.06737C9.0341 7.11327 8.9393 7.18117 8.86093 7.26674C8.6461 7.49087 8.04296 8.02941 8.00161 9.1708C7.96026 10.3122 8.7278 11.4453 8.83471 11.6041C8.94162 11.7628 10.3002 14.2365 12.5574 15.2534C14.8146 16.2703 14.8267 15.9611 15.2413 15.9383C15.6558 15.9154 16.5958 15.4277 16.8026 14.8944C17.0093 14.3611 17.0275 13.8962 16.975 13.7966C16.9226 13.697 16.7733 13.6337 16.5524 13.5092C16.3316 13.3846 15.2413 12.7828 15.0396 12.6957C14.8378 12.6085 14.6876 12.5659 14.5282 12.7922C14.3688 13.0184 13.918 13.5237 13.7818 13.6741C13.6457 13.8246 13.5126 13.8371 13.2907 13.7125C12.6362 13.4155 12.0369 13.0036 11.5196 12.4954C11.0436 12.0058 10.6408 11.4463 10.3244 10.8352C10.2013 10.5976 10.3244 10.4762 10.4404 10.3651C10.5564 10.2541 10.6764 10.1036 10.7934 9.97186C10.8907 9.85852 10.9715 9.7313 11.0334 9.59416C11.0664 9.53173 11.0836 9.46182 11.0836 9.39078C11.0836 9.31975 11.0664 9.24984 11.0334 9.18741C10.98 9.07119 10.5675 7.91423 10.397 7.4421Z" fill="currentColor"/>
</svg>
