<svg width="24" height="24" viewBox="0 0 24 24" fill="none" xmlns="http://www.w3.org/2000/svg">
<path d="M17 3.00006L6.51595 21.159" stroke="currentColor" stroke-width="2" stroke-linecap="round"/>
<path fill-rule="evenodd" clip-rule="evenodd" d="M16.2558 5.78872C15.253 4.44549 13.6509 3.57581 11.8457 3.57581C8.80814 3.57581 6.3457 6.03824 6.3457 9.07581V16.0758C6.3457 17.6314 6.99154 19.0362 8.02972 20.0367L9.07884 18.2195C8.61929 17.6273 8.3457 16.8835 8.3457 16.0758V9.07581C8.3457 7.14281 9.91271 5.57581 11.8457 5.57581C13.3241 5.57581 14.5884 6.49241 15.1013 7.78832L16.2558 5.78872ZM10.4744 19.297C10.8955 19.4765 11.359 19.5758 11.8457 19.5758C13.7787 19.5758 15.3457 18.0088 15.3457 16.0758V10.8597L17.1715 7.69728C17.2852 8.13782 17.3457 8.59975 17.3457 9.07581V16.0758C17.3457 19.1134 14.8833 21.5758 11.8457 21.5758C10.9947 21.5758 10.1888 21.3825 9.46957 21.0375L10.4744 19.297Z" fill="currentColor"/>
</svg>
