<svg width="20" height="20" viewBox="0 0 20 20" fill="none" xmlns="http://www.w3.org/2000/svg">
<path fill-rule="evenodd" clip-rule="evenodd" d="M6.29402 3.09323C6.82748 3.23617 7.14407 3.7845 7.00112 4.31797C6.85818 4.85144 6.30985 5.16802 5.77638 5.02508C5.38017 4.91891 4.974 5.15872 4.87556 5.55692L3.97267 9.20952C4.31528 9.11531 4.67607 9.06499 5.04861 9.06499C6.8427 9.06499 8.36423 10.232 8.89556 11.8482H11.2017C11.733 10.232 13.2545 9.06499 15.0486 9.06499C15.5409 9.06499 16.0126 9.15284 16.449 9.31372L15.7 5.52909C15.6267 5.15855 15.2552 4.92731 14.8903 5.02507C14.3569 5.16802 13.8085 4.85143 13.6656 4.31797C13.5227 3.7845 13.8392 3.23616 14.3727 3.09322C15.855 2.69605 17.364 3.63547 17.662 5.14082L18.981 11.8059C19.0053 11.9288 19.006 12.051 18.9861 12.1677C19.0588 12.4711 19.0972 12.7879 19.0972 13.1136C19.0972 15.3496 17.2846 17.1622 15.0486 17.1622C13.0635 17.1622 11.412 15.7335 11.0665 13.8482H9.03075C8.68518 15.7335 7.03375 17.1622 5.04861 17.1622C2.81263 17.1622 1 15.3496 1 13.1136C1 12.3989 1.1852 11.7274 1.51023 11.1446C1.49197 11.02 1.49711 10.8898 1.5292 10.76L2.934 5.07698C3.30115 3.59169 4.81616 2.69723 6.29402 3.09323ZM15.0486 15.1622C16.18 15.1622 17.0972 14.245 17.0972 13.1136C17.0972 11.9822 16.18 11.065 15.0486 11.065C13.9172 11.065 13 11.9822 13 13.1136C13 14.245 13.9172 15.1622 15.0486 15.1622ZM5.04861 15.1622C6.18003 15.1622 7.09723 14.245 7.09723 13.1136C7.09723 11.9822 6.18003 11.065 5.04861 11.065C3.9172 11.065 3 11.9822 3 13.1136C3 14.245 3.9172 15.1622 5.04861 15.1622Z" fill="#67697A"/>
</svg>
