<svg width="20" height="20" viewBox="0 0 20 20" fill="none" xmlns="http://www.w3.org/2000/svg">
<path d="M13.3043 1C13.3443 1 13.3843 1 13.4265 1C13.5245 2.19888 13.0623 3.09467 12.5005 3.74338C11.9493 4.38761 11.1944 5.01243 9.97361 4.91762C9.89217 3.73591 10.3552 2.90656 10.9162 2.25934C11.4365 1.65617 12.3904 1.11944 13.3043 1Z" fill="currentColor"/>
<path d="M17 13.4785C17 13.4904 17 13.5009 17 13.5121C16.6569 14.5407 16.1675 15.4223 15.5703 16.2405C15.0251 16.9833 14.357 17.9828 13.1641 17.9828C12.1333 17.9828 11.4486 17.3267 10.3921 17.3087C9.27459 17.2908 8.66002 17.8574 7.63826 18C7.52138 18 7.4045 18 7.28989 18C6.53959 17.8925 5.93407 17.3043 5.49294 16.7742C4.19218 15.2081 3.18701 13.1851 3 10.5962C3 10.3424 3 10.0894 3 9.83555C3.07918 7.98274 3.98858 6.47631 5.19735 5.74623C5.83529 5.35805 6.71227 5.02736 7.68879 5.17516C8.10729 5.23936 8.53485 5.3812 8.90962 5.52154C9.26479 5.65665 9.70893 5.89628 10.1297 5.88359C10.4147 5.87538 10.6983 5.72832 10.9856 5.62455C11.8271 5.32372 12.6521 4.97883 13.7394 5.14082C15.0462 5.33641 15.9737 5.91121 16.5468 6.79805C15.4413 7.49453 14.5674 8.54411 14.7167 10.3364C14.8494 11.9646 15.8056 12.9171 17 13.4785Z" fill="currentColor"/>
</svg>
