<svg width="20" height="20" viewBox="0 0 20 20" fill="none" xmlns="http://www.w3.org/2000/svg">
<path fill-rule="evenodd" clip-rule="evenodd" d="M4.33366 4.33855C7.44825 1.22048 12.5594 1.22048 15.6739 4.33855C18.7885 7.45661 18.7885 12.5734 15.5941 15.6915C12.9587 18.2499 8.96561 18.7296 5.93089 16.8908L4.81283 17.2106L3.53505 17.6103C3.13575 17.7702 2.73644 17.3705 2.8163 16.8908L3.13575 15.5316L3.37533 14.4922C1.29894 11.3742 1.53852 7.13681 4.33366 4.33855ZM8 8C8 7.44772 7.55228 7 7 7C6.44772 7 6 7.44772 6 8V12C6 12.5523 6.44772 13 7 13C7.55228 13 8 12.5523 8 12V8ZM10 7C10.5523 7 11 7.44772 11 8V12C11 12.5523 10.5523 13 10 13C9.44772 13 9 12.5523 9 12V8C9 7.44772 9.44772 7 10 7ZM14 8C14 7.44772 13.5523 7 13 7C12.4477 7 12 7.44772 12 8V12C12 12.5523 12.4477 13 13 13C13.5523 13 14 12.5523 14 12V8Z" fill="currentColor"/>
</svg>
