<svg width="20" height="20" viewBox="0 0 20 20" fill="none" xmlns="http://www.w3.org/2000/svg">
<path d="M7.125 3H5.70833C5.31713 3 5 3.29848 5 3.66667V15.6667C5 16.0349 5.31713 16.3333 5.70833 16.3333H11.0208C13.1724 16.3333 14.9167 14.6917 14.9167 12.6667C14.9167 11.1255 13.8542 10 12.405 9.23819C13.4815 8.66631 14.2083 7.57971 14.2083 6.33333C14.2083 4.49238 12.6227 3 10.6667 3H6.41667" stroke="currentColor" stroke-width="2" stroke-linejoin="bevel"/>
<path d="M9.25016 8.33332C10.0326 8.33332 10.6668 7.73637 10.6668 6.99999C10.6668 6.26361 10.0326 5.66666 9.25016 5.66666C8.46776 5.66666 7.8335 6.26361 7.8335 6.99999C7.8335 7.73637 8.46776 8.33332 9.25016 8.33332Z" fill="currentColor"/>
<path d="M9.25016 13.6667C10.0326 13.6667 10.6668 13.0697 10.6668 12.3333C10.6668 11.597 10.0326 11 9.25016 11C8.46776 11 7.8335 11.597 7.8335 12.3333C7.8335 13.0697 8.46776 13.6667 9.25016 13.6667Z" fill="currentColor"/>
<path d="M9.25 7L9.25 12.3333" stroke="currentColor" stroke-width="1.7" stroke-miterlimit="10"/>
</svg>
