<svg width="20" height="20" viewBox="0 0 20 20" fill="none" xmlns="http://www.w3.org/2000/svg">
<path fill-rule="evenodd" clip-rule="evenodd" d="M7 3C5.34315 3 4 4.34315 4 6V15C4 16.6569 5.34315 18 7 18H13C14.6569 18 16 16.6569 16 15V6C16 4.34315 14.6569 3 13 3H7ZM8 6C7.44772 6 7 6.44772 7 7C7 7.55228 7.44772 8 8 8H12C12.5523 8 13 7.55228 13 7C13 6.44772 12.5523 6 12 6H8ZM7.8 10.6C8.24183 10.6 8.6 10.2418 8.6 9.8C8.6 9.35817 8.24183 9 7.8 9C7.35817 9 7 9.35817 7 9.8C7 10.2418 7.35817 10.6 7.8 10.6ZM10 10.6C10.4418 10.6 10.8 10.2418 10.8 9.8C10.8 9.35817 10.4418 9 10 9C9.55817 9 9.2 9.35817 9.2 9.8C9.2 10.2418 9.55817 10.6 10 10.6ZM13 9.8C13 10.2418 12.6418 10.6 12.2 10.6C11.7582 10.6 11.4 10.2418 11.4 9.8C11.4 9.35817 11.7582 9 12.2 9C12.6418 9 13 9.35817 13 9.8ZM7.8 12.8C8.24183 12.8 8.6 12.4418 8.6 12C8.6 11.5582 8.24183 11.2 7.8 11.2C7.35817 11.2 7 11.5582 7 12C7 12.4418 7.35817 12.8 7.8 12.8ZM10.8 12C10.8 12.4418 10.4418 12.8 10 12.8C9.55817 12.8 9.2 12.4418 9.2 12C9.2 11.5582 9.55817 11.2 10 11.2C10.4418 11.2 10.8 11.5582 10.8 12ZM12.2 12.8C12.6418 12.8 13 12.4418 13 12C13 11.5582 12.6418 11.2 12.2 11.2C11.7582 11.2 11.4 11.5582 11.4 12C11.4 12.4418 11.7582 12.8 12.2 12.8ZM8.6 14.2C8.6 14.6418 8.24183 15 7.8 15C7.35817 15 7 14.6418 7 14.2C7 13.7582 7.35817 13.4 7.8 13.4C8.24183 13.4 8.6 13.7582 8.6 14.2ZM10 15C10.4418 15 10.8 14.6418 10.8 14.2C10.8 13.7582 10.4418 13.4 10 13.4C9.55817 13.4 9.2 13.7582 9.2 14.2C9.2 14.6418 9.55817 15 10 15ZM13 14.2C13 14.6418 12.6418 15 12.2 15C11.7582 15 11.4 14.6418 11.4 14.2C11.4 13.7582 11.7582 13.4 12.2 13.4C12.6418 13.4 13 13.7582 13 14.2Z" fill="currentColor"/>
</svg>
