<svg width="20" height="20" viewBox="0 0 20 20" fill="none" xmlns="http://www.w3.org/2000/svg">
<path fill-rule="evenodd" clip-rule="evenodd" d="M16.9291 12.8701C17.306 11.9602 17.5 10.9849 17.5 10C17.5 8.01088 16.7098 6.10322 15.3033 4.6967C13.8968 3.29018 11.9891 2.5 10 2.5C8.01088 2.5 6.10322 3.29018 4.6967 4.6967C3.29018 6.10322 2.5 8.01088 2.5 10C2.5 10.9849 2.69399 11.9602 3.0709 12.8701C3.44781 13.7801 4.00026 14.6069 4.6967 15.3033C5.39314 15.9997 6.21993 16.5522 7.12987 16.9291C8.03982 17.306 9.01509 17.5 10 17.5C10.9849 17.5 11.9602 17.306 12.8701 16.9291C13.7801 16.5522 14.6069 15.9997 15.3033 15.3033C15.9997 14.6069 16.5522 13.7801 16.9291 12.8701ZM10 4.75C10.4142 4.75 10.7499 5.11162 10.7499 5.55769V5.90656C11.7722 6.04051 12.6469 6.48861 12.9626 7.52762C13.0914 7.95157 12.8768 8.40773 12.4831 8.54647C12.0895 8.68522 11.6659 8.45402 11.5371 8.03007C11.4781 7.83578 11.226 7.47596 10 7.47596C9.15283 7.47596 8.81356 7.715 8.68055 7.86176C8.54164 8.01504 8.5001 8.20847 8.5001 8.37115C8.5001 8.50561 8.52995 8.57549 8.56031 8.62276C8.59699 8.67988 8.6685 8.75458 8.81077 8.83768C9.12155 9.01921 9.57081 9.13511 10.1622 9.27621L10.234 9.29331C10.7512 9.41634 11.3885 9.56793 11.8938 9.852C12.1714 10.008 12.4534 10.2265 12.6658 10.5453C12.8858 10.8754 12.9998 11.2668 12.9998 11.7029C12.9998 12.1373 12.8886 12.7857 12.3784 13.319C11.9959 13.7189 11.4578 13.9819 10.7499 14.0873V14.4423C10.7499 14.8884 10.4142 15.25 10 15.25C9.58581 15.25 9.25005 14.8884 9.25005 14.4423V14.0934C8.22784 13.9595 7.35313 13.5114 7.0374 12.4724C6.90858 12.0484 7.12325 11.5923 7.51689 11.4535C7.91053 11.3148 8.33407 11.546 8.4629 11.9699C8.52194 12.1642 8.77395 12.524 10 12.524C10.861 12.524 11.2041 12.2955 11.3338 12.1598C11.4611 12.0268 11.4999 11.8608 11.4999 11.7029C11.4999 11.5837 11.4733 11.5262 11.4472 11.487C11.4135 11.4365 11.344 11.3651 11.1997 11.284C10.885 11.1071 10.4336 10.9955 9.8378 10.8534L9.80379 10.8452C9.27578 10.7194 8.61734 10.5624 8.09569 10.2577C7.81611 10.0944 7.53609 9.86769 7.32669 9.54161C7.11097 9.20567 7.0002 8.8105 7.0002 8.37115C7.0002 7.94153 7.10866 7.28352 7.6072 6.73343C7.98876 6.31242 8.53121 6.02892 9.25005 5.91578V5.55769C9.25005 5.11162 9.58581 4.75 10 4.75Z" fill="currentColor"/>
</svg>
