<svg xmlns="http://www.w3.org/2000/svg" width="24" height="24" viewBox="0 0 24 24" fill="none">
  <path fill-rule="evenodd" clip-rule="evenodd" d="M20.3149 15.4442C20.7672 14.3522 21 13.1819 21 12C21 9.61305 20.0518 7.32387 18.364 5.63604C16.6761 3.94821 14.3869 3 12 3C9.61305 3 7.32387 3.94821 5.63604 5.63604C3.94821 7.32387 3 9.61305 3 12C3 13.1819 3.23279 14.3522 3.68508 15.4442C4.13738 16.5361 4.80031 17.5282 5.63604 18.364C6.47177 19.1997 7.46392 19.8626 8.55585 20.3149C9.64778 20.7672 10.8181 21 12 21C13.1819 21 14.3522 20.7672 15.4442 20.3149C16.5361 19.8626 17.5282 19.1997 18.364 18.364C19.1997 17.5282 19.8626 16.5361 20.3149 15.4442ZM12 5.7C12.497 5.7 12.8999 6.13394 12.8999 6.66923V7.08787C14.1266 7.24861 15.1762 7.78633 15.5551 9.03315C15.7097 9.54189 15.4521 10.0893 14.9797 10.2558C14.5074 10.4223 13.9991 10.1448 13.8445 9.63608C13.7737 9.40294 13.4713 8.97115 12 8.97115C10.9834 8.97115 10.5763 9.25801 10.4167 9.43412C10.25 9.61805 10.2001 9.85017 10.2001 10.0454C10.2001 10.2067 10.2359 10.2906 10.2724 10.3473C10.3164 10.4159 10.4022 10.5055 10.5729 10.6052C10.9459 10.8231 11.485 10.9621 12.1946 11.1315L12.2808 11.152C12.9015 11.2996 13.6662 11.4815 14.2726 11.8224C14.6056 12.0097 14.9441 12.2718 15.199 12.6543C15.463 13.0505 15.5998 13.5201 15.5998 14.0435C15.5998 14.5647 15.4663 15.3429 14.8541 15.9828C14.3951 16.4626 13.7493 16.7783 12.8999 16.9048V17.3308C12.8999 17.8661 12.497 18.3 12 18.3C11.503 18.3 11.1001 17.8661 11.1001 17.3308V16.9121C9.87341 16.7514 8.82376 16.2137 8.44488 14.9669C8.29029 14.4581 8.5479 13.9107 9.02027 13.7442C9.49264 13.5777 10.0009 13.8552 10.1555 14.3639C10.2263 14.5971 10.5287 15.0288 12 15.0288C13.0332 15.0288 13.4449 14.7546 13.6006 14.5918C13.7533 14.4321 13.7999 14.233 13.7999 14.0435C13.7999 13.9005 13.7679 13.8314 13.7366 13.7845C13.6962 13.7238 13.6128 13.6382 13.4397 13.5408C13.062 13.3285 12.5204 13.1946 11.8054 13.024L11.7646 13.0143C11.1309 12.8632 10.3408 12.6748 9.71483 12.3092C9.37934 12.1132 9.0433 11.8412 8.79203 11.4499C8.53316 11.0468 8.40024 10.5726 8.40024 10.0454C8.40024 9.52984 8.53039 8.74022 9.12864 8.08011C9.58651 7.5749 10.2374 7.2347 11.1001 7.09894V6.66923C11.1001 6.13394 11.503 5.7 12 5.7Z" fill="currentColor"/>
</svg>