<svg width="20" height="20" viewBox="0 0 20 20" fill="none" xmlns="http://www.w3.org/2000/svg">
<path d="M7.49545 18.9949H7.477V11.2226H5.48987C5.36419 11.2229 5.24348 11.1735 5.15404 11.0852C5.06459 10.9969 5.01365 10.8769 5.0123 10.7512L5 8.24754C5.00027 8.12096 5.05067 7.99965 5.14018 7.91014C5.22968 7.82064 5.35099 7.77024 5.47757 7.76997H7.4893V5.34933C7.43178 4.77561 7.5004 4.19626 7.69037 3.65185C7.88033 3.10745 8.18704 2.61117 8.58901 2.19778C8.99097 1.7844 9.47846 1.46391 10.0173 1.25877C10.5562 1.05363 11.1334 0.968795 11.7085 1.01022H13.7653C13.8919 1.01049 14.0132 1.06089 14.1027 1.1504C14.1922 1.2399 14.2426 1.36121 14.2429 1.48779V3.60098C14.2429 3.72764 14.1926 3.84911 14.103 3.93867C14.0135 4.02823 13.892 4.07855 13.7653 4.07855H12.5007C11.1356 4.07855 10.8712 4.72624 10.8712 5.67522V7.76894H13.8637C13.9311 7.76918 13.9977 7.78368 14.0591 7.81151C14.1206 7.83933 14.1754 7.87985 14.22 7.93038C14.2646 7.98091 14.2981 8.04032 14.3181 8.1047C14.3381 8.16908 14.3443 8.23697 14.3362 8.3039L14.041 10.8075C14.0272 10.9232 13.9716 11.0299 13.8845 11.1073C13.7975 11.1847 13.6851 11.2275 13.5686 11.2277H10.8835L10.8712 19L7.49545 18.9939" fill="currentColor"/>
</svg>
