<svg width="20" height="20" viewBox="0 0 20 20" fill="none" xmlns="http://www.w3.org/2000/svg">
<path d="M5 2C5 1.44772 5.44772 1 6 1H14C14.3466 1 14.6684 1.17945 14.8506 1.47427C15.0329 1.76909 15.0494 2.13723 14.8944 2.44721L12.418 7.4H14C14.3581 7.4 14.6888 7.59145 14.8671 7.90194C15.0455 8.21243 15.0442 8.59458 14.8638 8.90387L9.26378 18.5039C9.03614 18.8941 8.57514 19.0832 8.13902 18.9653C7.7029 18.8474 7.4 18.4518 7.4 18V11.8H6C5.44772 11.8 5 11.3523 5 10.8V2Z" fill="currentColor"/>
</svg>
