<svg width="20" height="20" viewBox="0 0 20 20" fill="none" xmlns="http://www.w3.org/2000/svg">
<path d="M18 13C18 14.6569 16.6071 16 14.8889 16C13.1707 16 11.7778 14.6569 11.7778 13C11.7778 11.3431 13.1707 10 14.8889 10C16.6071 10 18 11.3431 18 13Z" fill="currentColor"/>
<path d="M8.22222 13C8.22222 14.6569 6.82933 16 5.11111 16C3.39289 16 2 14.6569 2 13C2 11.3431 3.39289 10 5.11111 10C6.82933 10 8.22222 11.3431 8.22222 13Z" fill="currentColor"/>
<path d="M8.29774 13.4286H11.702M18 13C18 14.6569 16.6071 16 14.8889 16C13.1707 16 11.7778 14.6569 11.7778 13C11.7778 11.3431 13.1707 10 14.8889 10C16.6071 10 18 11.3431 18 13ZM8.22222 13C8.22222 14.6569 6.82933 16 5.11111 16C3.39289 16 2 14.6569 2 13C2 11.3431 3.39289 10 5.11111 10C6.82933 10 8.22222 11.3431 8.22222 13Z" stroke="currentColor" stroke-width="2"/>
<path d="M18 13L15.9713 5.31453C15.7218 4.36901 14.7611 3.80749 13.8263 4.06078M2 13L4.02866 5.31453C4.27824 4.36901 5.23894 3.80749 6.17372 4.06078" stroke="currentColor" stroke-width="2" stroke-linecap="round" stroke-linejoin="round"/>
</svg>
