<svg width="20" height="20" viewBox="0 0 20 20" fill="none" xmlns="http://www.w3.org/2000/svg">
<path d="M6.1115 2.20391C5.70313 1.95578 5.21643 1.93359 4.79197 2.14016L11.9088 9.33898L14.2358 6.97927L6.1115 2.20391ZM4.13808 2.80641C4.0483 2.99829 4 3.21173 4 3.43142V16.5997C4 16.8203 4.04861 17.0306 4.13932 17.2184L11.2534 10.0037L4.13808 2.80641ZM11.9098 10.6674L4.80438 17.8734C4.99293 17.9616 5.19355 18 5.39387 18C5.64124 18 5.88799 17.9403 6.11153 17.8047L14.2374 13.0221L11.9098 10.6674ZM17.33 8.79804C17.3272 8.79616 17.3241 8.79429 17.3213 8.79272L15.0656 7.46677L12.5649 10.0027L15.0671 12.5337C15.0671 12.5337 17.3272 11.2037 17.33 11.2021C17.7495 10.9449 18 10.4956 18 9.99992C18 9.50429 17.7495 9.05491 17.33 8.79804Z" fill="currentColor"/>
</svg>
