<svg width="20" height="20" viewBox="0 0 20 20" fill="none" xmlns="http://www.w3.org/2000/svg">
<path d="M15.6739 4.33855C12.5594 1.22048 7.44825 1.22048 4.33366 4.33855C1.53852 7.13681 1.29894 11.3742 3.37533 14.4922L3.13575 15.5316L2.8163 16.8908C2.73644 17.3705 3.13575 17.7702 3.53505 17.6103L4.81283 17.2106L5.93089 16.8908C8.96561 18.7296 12.9587 18.2499 15.5941 15.6915C18.7885 12.5734 18.7885 7.45661 15.6739 4.33855Z" fill="currentColor"/>
<path fill-rule="evenodd" clip-rule="evenodd" d="M7.69109 5.91177C8.26316 5.33706 9.07075 5 9.93877 5C11.4942 5 13 6.14519 13 7.8484C13 8.68783 12.6136 9.41507 12.0499 9.91373C11.877 10.0668 11.6533 10.1887 11.5178 10.2626C11.5056 10.2692 11.4941 10.2755 11.4834 10.2814C11.3147 10.374 11.1874 10.4465 11.0771 10.5315C10.8996 10.6683 10.7959 10.8046 10.7959 11.1064C10.7959 11.5999 10.4121 12 9.93877 12C9.4654 12 9.08166 11.5999 9.08166 11.1064C9.08166 10.105 9.5569 9.48061 10.0581 9.09436C10.2848 8.91958 10.5194 8.79074 10.6799 8.70264L10.6902 8.69697C10.7752 8.65028 10.8337 8.61817 10.8836 8.58792C10.927 8.56167 10.9424 8.54949 10.9424 8.54958C10.9424 8.54959 10.9419 8.55007 10.9408 8.55099C11.1772 8.3419 11.2858 8.09032 11.2858 7.8484C11.2858 7.39242 10.8179 6.78723 9.93877 6.78723C9.49032 6.78723 9.11623 6.96197 8.88055 7.19875C8.77265 7.30715 8.69667 7.42515 8.65024 7.54308C8.47047 7.99964 7.96974 8.21782 7.53184 8.03039C7.09393 7.84297 6.88467 7.32092 7.06444 6.86436C7.20794 6.49989 7.4255 6.1786 7.69109 5.91177Z" fill="white"/>
<circle cx="10" cy="14.1667" r="1" fill="white"/>
</svg>
