<svg width="20" height="20" viewBox="0 0 20 20" fill="none" xmlns="http://www.w3.org/2000/svg">
<path fill-rule="evenodd" clip-rule="evenodd" d="M17.391 6.93853C17.7931 7.90914 18 8.94942 18 10C18 12.1217 17.1571 14.1566 15.6569 15.6569C14.1566 17.1571 12.1217 18 10 18C7.87827 18 5.84344 17.1571 4.34315 15.6569C2.84285 14.1566 2 12.1217 2 10C2 8.94942 2.20693 7.90914 2.60896 6.93853C3.011 5.96793 3.60028 5.08601 4.34315 4.34315C5.08601 3.60028 5.96793 3.011 6.93853 2.60896C7.90914 2.20692 8.94943 2 10 2C11.0506 2 12.0909 2.20692 13.0615 2.60896C14.0321 3.011 14.914 3.60028 15.6569 4.34315C16.3997 5.08601 16.989 5.96793 17.391 6.93853ZM11 13.3333C11 13.8856 10.5523 14.3333 10 14.3333C9.44772 14.3333 9 13.8856 9 13.3333V9.99999C9 9.44771 9.44772 8.99999 10 8.99999C10.5523 8.99999 11 9.44771 11 9.99999V13.3333ZM10 7.66666C9.44772 7.66666 9 7.21895 9 6.66666C9 6.11438 9.44772 5.66666 10 5.66666H10.0083C10.5606 5.66666 11.0083 6.11438 11.0083 6.66666C11.0083 7.21895 10.5606 7.66666 10.0083 7.66666H10Z" fill="currentColor"/>
</svg>
