<svg width="20" height="20" viewBox="0 0 20 20" fill="none" xmlns="http://www.w3.org/2000/svg">
<path d="M10.4028 7.49099C9.88265 7.41386 9.35142 7.50271 8.88467 7.74489C8.41792 7.98708 8.03942 8.37028 7.80301 8.83998C7.5666 9.30968 7.48431 9.84196 7.56785 10.3611C7.65139 10.8803 7.8965 11.3599 8.26833 11.7317C8.64016 12.1035 9.11976 12.3487 9.63892 12.4322C10.1581 12.5157 10.6904 12.4335 11.1601 12.197C11.6298 11.9606 12.013 11.5821 12.2552 11.1154C12.4973 10.6486 12.5862 10.1174 12.5091 9.59724C12.4304 9.06667 12.1831 8.57546 11.8039 8.19619C11.4246 7.81691 10.9334 7.56967 10.4028 7.49099Z" fill="currentColor"/>
<path fill-rule="evenodd" clip-rule="evenodd" d="M14.1667 1.66663H5.83342C3.53223 1.66663 1.66675 3.53211 1.66675 5.83329V14.1666C1.66675 16.4678 3.53223 18.3333 5.83342 18.3333H14.1667C16.4679 18.3333 18.3334 16.4678 18.3334 14.1666V5.83329C18.3334 3.53211 16.4679 1.66663 14.1667 1.66663ZM8.11705 6.26552C8.89497 5.86188 9.78035 5.7138 10.6473 5.84235C11.5316 5.97348 12.3502 6.38555 12.9824 7.01767C13.6145 7.6498 14.0266 8.46848 14.1577 9.35277C14.2862 10.2197 14.1382 11.1051 13.7345 11.883C13.3309 12.6609 12.6922 13.2917 11.9094 13.6858C11.1266 14.0798 10.2394 14.2169 9.37414 14.0777C8.50887 13.9385 7.70953 13.5299 7.08982 12.9102C6.47011 12.2905 6.06158 11.4912 5.92235 10.6259C5.78311 9.76064 5.92026 8.87349 6.31428 8.09066C6.70831 7.30783 7.33914 6.66917 8.11705 6.26552ZM15.0001 5.83329C15.4603 5.83329 15.8334 5.4602 15.8334 4.99996C15.8334 4.53972 15.4603 4.16663 15.0001 4.16663C14.5398 4.16663 14.1667 4.53972 14.1667 4.99996C14.1667 5.4602 14.5398 5.83329 15.0001 5.83329Z" fill="currentColor"/>
</svg>
