<svg width="20" height="20" viewBox="0 0 20 20" fill="none" xmlns="http://www.w3.org/2000/svg">
<path d="M10.4026 7.1577C9.88241 7.08056 9.35118 7.16941 8.88443 7.4116C8.41768 7.65378 8.03918 8.03698 7.80276 8.50668C7.56635 8.97638 7.48406 9.50867 7.5676 10.0278C7.65114 10.547 7.89626 11.0266 8.26809 11.3984C8.63991 11.7702 9.11951 12.0154 9.63868 12.0989C10.1578 12.1824 10.6901 12.1002 11.1598 11.8637C11.6295 11.6273 12.0127 11.2488 12.2549 10.7821C12.4971 10.3153 12.5859 9.7841 12.5088 9.26395C12.4301 8.73337 12.1829 8.24216 11.8036 7.86289C11.4243 7.48361 10.9331 7.23637 10.4026 7.1577Z" fill="currentColor"/>
<path fill-rule="evenodd" clip-rule="evenodd" d="M14.1665 1.33333H5.83317C3.53198 1.33333 1.6665 3.19881 1.6665 5.5V13.8333C1.6665 16.1345 3.53198 18 5.83317 18H14.1665C16.4677 18 18.3332 16.1345 18.3332 13.8333V5.5C18.3332 3.19881 16.4677 1.33333 14.1665 1.33333ZM8.11681 5.93222C8.89472 5.52858 9.78011 5.3805 10.647 5.50906C11.5313 5.64019 12.35 6.05225 12.9821 6.68438C13.6143 7.3165 14.0263 8.13518 14.1574 9.01947C14.286 9.8864 14.1379 10.7718 13.7343 11.5497C13.3306 12.3276 12.692 12.9584 11.9091 13.3525C11.1263 13.7465 10.2392 13.8836 9.37389 13.7444C8.50862 13.6052 7.70928 13.1966 7.08957 12.5769C6.46986 11.9572 6.06134 11.1579 5.9221 10.2926C5.78287 9.42734 5.92002 8.5402 6.31404 7.75736C6.70806 6.97453 7.33889 6.33587 8.11681 5.93222ZM14.9998 5.5C15.4601 5.5 15.8332 5.1269 15.8332 4.66666C15.8332 4.20642 15.4601 3.83333 14.9998 3.83333C14.5396 3.83333 14.1665 4.20642 14.1665 4.66666C14.1665 5.1269 14.5396 5.5 14.9998 5.5Z" fill="currentColor"/>
</svg>
