<svg width="24" height="24" viewBox="0 0 24 24" fill="none" xmlns="http://www.w3.org/2000/svg">
<path d="M2.40477 20.1964C1.96098 20.5252 1.86771 21.1514 2.19644 21.5952C2.52518 22.039 3.15143 22.1323 3.59523 21.8036L2.40477 20.1964ZM4.14231 20.1538L4.73753 20.9574L4.73753 20.9574L4.14231 20.1538ZM19.8577 20.1538L19.2625 20.9574L19.2625 20.9574L19.8577 20.1538ZM20.4048 21.8036C20.8486 22.1323 21.4748 22.039 21.8036 21.5952C22.1323 21.1514 22.039 20.5252 21.5952 20.1964L20.4048 21.8036ZM10.3635 20.0391L10.8995 20.8833L10.8995 20.8833L10.3635 20.0391ZM10.425 20L9.88899 19.1558L9.88898 19.1558L10.425 20ZM13.575 20L14.111 19.1558L14.111 19.1558L13.575 20ZM13.6365 20.0391L13.1005 20.8833L13.1005 20.8833L13.6365 20.0391ZM16.6635 20.0391L17.1995 20.8833L17.1995 20.8833L16.6635 20.0391ZM7.33651 20.0391L6.80049 20.8833L6.8005 20.8833L7.33651 20.0391ZM11.82 3.135L12.42 3.935V3.935L11.82 3.135ZM7.4 5.2C6.95817 5.53137 6.86863 6.15817 7.2 6.6C7.53137 7.04183 8.15817 7.13137 8.6 6.8L7.4 5.2ZM12.18 3.135L11.58 3.935V3.935L12.18 3.135ZM15.4 6.8C15.8418 7.13137 16.4686 7.04183 16.8 6.6C17.1314 6.15817 17.0418 5.53137 16.6 5.2L15.4 6.8ZM18.0871 8.13292C17.5536 8.27586 17.2371 8.82419 17.38 9.35766C17.5229 9.89113 18.0713 10.2077 18.6047 10.0648L18.0871 8.13292ZM21.2127 9.36596C21.7462 9.22301 22.0628 8.67468 21.9198 8.14121C21.7769 7.60775 21.2286 7.29116 20.6951 7.4341L21.2127 9.36596ZM18.5896 11.0341C18.0561 10.8911 17.5078 11.2077 17.3648 11.7412C17.2219 12.2746 17.5385 12.823 18.0719 12.9659L18.5896 11.0341ZM19.8106 13.4318C20.3441 13.5747 20.8924 13.2582 21.0354 12.7247C21.1783 12.1912 20.8617 11.6429 20.3282 11.4999L19.8106 13.4318ZM3.59523 21.8036L4.73753 20.9574L3.54708 19.3503L2.40477 20.1964L3.59523 21.8036ZM19.2625 20.9574L20.4048 21.8036L21.5952 20.1964L20.4529 19.3503L19.2625 20.9574ZM10.8995 20.8833L10.961 20.8442L9.88898 19.1558L9.82747 19.1948L10.8995 20.8833ZM13.039 20.8442L13.1005 20.8833L14.1725 19.1948L14.111 19.1558L13.039 20.8442ZM10.961 20.8442C11.5952 20.4416 12.4048 20.4416 13.039 20.8442L14.111 19.1558C12.8226 18.3377 11.1774 18.3377 9.88899 19.1558L10.961 20.8442ZM17.1995 20.8833C17.2622 20.8435 17.3265 20.808 17.392 20.7767L16.5302 18.9718C16.3927 19.0375 16.2582 19.1119 16.1275 19.1948L17.1995 20.8833ZM17.392 20.7767C17.9951 20.4887 18.7159 20.5526 19.2625 20.9574L20.4529 19.3503C19.3065 18.5011 17.7955 18.3677 16.5303 18.9718L17.392 20.7767ZM16.1275 19.1948C15.5309 19.5736 14.7691 19.5736 14.1725 19.1948L13.1005 20.8833C14.3514 21.6775 15.9486 21.6775 17.1995 20.8833L16.1275 19.1948ZM4.73753 20.9574C5.28406 20.5526 6.00489 20.4887 6.60799 20.7767L7.46975 18.9718C6.2045 18.3677 4.69354 18.5011 3.54708 19.3503L4.73753 20.9574ZM6.60799 20.7767C6.67353 20.808 6.73781 20.8435 6.80049 20.8833L7.87252 19.1948C7.74184 19.1119 7.60731 19.0375 7.46974 18.9718L6.60799 20.7767ZM6.8005 20.8833C8.05141 21.6775 9.64859 21.6775 10.8995 20.8833L9.82749 19.1948C9.23088 19.5736 8.46912 19.5736 7.87251 19.1948L6.8005 20.8833ZM13.037 9.56364L15.9981 20.1438L17.9241 19.6047L14.963 9.0246L13.037 9.56364ZM16.0057 20.1696L16.0446 20.2953L17.9554 19.7047L17.9165 19.5789L16.0057 20.1696ZM7.9554 20.2953L7.99427 20.1696L6.08346 19.5789L6.0446 19.7047L7.9554 20.2953ZM8.00186 20.1438L10.963 9.56364L9.037 9.0246L6.07587 19.6047L8.00186 20.1438ZM13 5V9.29412H15V5H13ZM11 9.29412V5H9V9.29412H11ZM10 10.2941H14V8.29412H10V10.2941ZM11.22 2.335L7.4 5.2L8.6 6.8L12.42 3.935L11.22 2.335ZM11.58 3.935L15.4 6.8L16.6 5.2L12.78 2.335L11.58 3.935ZM12.42 3.935C12.1711 4.12167 11.8289 4.12167 11.58 3.935L12.78 2.335C12.3178 1.98833 11.6822 1.98833 11.22 2.335L12.42 3.935ZM18.6047 10.0648L21.2127 9.36596L20.6951 7.4341L18.0871 8.13292L18.6047 10.0648ZM18.0719 12.9659L19.8106 13.4318L20.3282 11.4999L18.5896 11.0341L18.0719 12.9659ZM16 15H8V17H16V15Z" fill="currentColor" />
</svg>
