<svg width="20" height="20" viewBox="0 0 20 20" fill="none" xmlns="http://www.w3.org/2000/svg">
<path d="M5.35725 18.3895C5.35698 18.5511 5.29268 18.7059 5.17845 18.8202C5.06423 18.9344 4.90938 18.9987 4.74784 18.999H2.16277C2.00114 18.999 1.84613 18.9348 1.73185 18.8205C1.61756 18.7062 1.55335 18.5512 1.55335 18.3895V7.55197C1.55363 7.39043 1.61792 7.23558 1.73215 7.12135C1.84638 7.00712 2.00122 6.94283 2.16277 6.94255H4.74576C4.90739 6.94255 5.06239 7.00676 5.17668 7.12105C5.29097 7.23533 5.35517 7.39034 5.35517 7.55197V18.3895H5.35725ZM3.45842 5.91683C2.97219 5.91683 2.49688 5.77265 2.0926 5.50251C1.68831 5.23238 1.37321 4.84843 1.18714 4.39921C1.00107 3.94999 0.952379 3.45569 1.04724 2.9788C1.1421 2.50192 1.37624 2.06387 1.72005 1.72005C2.06387 1.37624 2.50192 1.1421 2.9788 1.04724C3.45569 0.95238 3.95 1.00107 4.39921 1.18714C4.84843 1.37321 5.23238 1.68831 5.50251 2.09259C5.77265 2.49688 5.91683 2.97219 5.91683 3.45842C5.91683 4.11043 5.65782 4.73573 5.19678 5.19678C4.73574 5.65782 4.11043 5.91683 3.45842 5.91683ZM18.8744 18.4394C18.8741 18.588 18.815 18.7304 18.7099 18.8355C18.6048 18.9406 18.4624 18.9997 18.3138 19H15.5429C15.3943 18.9997 15.2518 18.9406 15.1467 18.8355C15.0417 18.7304 14.9825 18.588 14.9822 18.4394V13.3523C14.9822 12.5923 15.2034 10.0301 13.0014 10.0301C11.2905 10.0301 10.9447 11.7846 10.8752 12.5716V18.4332C10.8749 18.5818 10.8158 18.7242 10.7107 18.8293C10.6056 18.9343 10.4632 18.9935 10.3146 18.9938H7.62879C7.48047 18.9932 7.3384 18.9339 7.23372 18.8288C7.12903 18.7238 7.07025 18.5815 7.07025 18.4332V7.50317C7.07025 7.35485 7.12903 7.21256 7.23372 7.10749C7.3384 7.00241 7.48047 6.9431 7.62879 6.94255H10.3146C10.4632 6.94283 10.6056 7.00198 10.7107 7.10706C10.8158 7.21214 10.8749 7.35457 10.8752 7.50317V8.44584C11.2615 7.864 11.8 7.39925 12.432 7.10217C13.0641 6.80508 13.7655 6.68703 14.46 6.76087C18.9014 6.76087 18.8754 10.9136 18.8754 13.1976V18.4425L18.8744 18.4394Z" fill="currentColor "/>
</svg>
