<svg width="20" height="20" viewBox="0 0 20 20" fill="none" xmlns="http://www.w3.org/2000/svg">
<line x1="7" y1="8" x2="12" y2="8" stroke="currentColor" stroke-width="2" stroke-linecap="round"/>
<line x1="7" y1="11" x2="10" y2="11" stroke="currentColor" stroke-width="2" stroke-linecap="round"/>
<path d="M9.51689 16.2978C10.0692 16.2978 10.5169 15.8501 10.5169 15.2978C10.5169 14.7455 10.0692 14.2978 9.51689 14.2978V16.2978ZM14.2979 9.5C14.2979 10.0523 14.7456 10.5 15.2979 10.5C15.8501 10.5 16.2979 10.0523 16.2979 9.5H14.2979ZM5.29785 4.29782H13.2979V2.29782H5.29785V4.29782ZM4.29785 13.2978V5.29782H2.29785V13.2978H4.29785ZM9.51689 14.2978H5.29785V16.2978H9.51689V14.2978ZM14.2979 5.29782V9.5H16.2979V5.29782H14.2979ZM2.29785 13.2978C2.29785 14.9547 3.64099 16.2978 5.29785 16.2978V14.2978C4.74557 14.2978 4.29785 13.8501 4.29785 13.2978H2.29785ZM13.2979 4.29782C13.8501 4.29782 14.2979 4.74554 14.2979 5.29782H16.2979C16.2979 3.64097 14.9547 2.29782 13.2979 2.29782V4.29782ZM5.29785 2.29782C3.641 2.29782 2.29785 3.64097 2.29785 5.29782H4.29785C4.29785 4.74554 4.74557 4.29782 5.29785 4.29782V2.29782Z" fill="currentColor"/>
<path d="M13.2979 15H17.2979" stroke="currentColor" stroke-width="2" stroke-linecap="round"/>
<path d="M15.2979 13V17" stroke="currentColor" stroke-width="2" stroke-linecap="round"/>
</svg>
