<svg width="20" height="20" viewBox="0 0 20 20" fill="none" xmlns="http://www.w3.org/2000/svg">
<path fill-rule="evenodd" clip-rule="evenodd" d="M16 12C16.5523 12 17 12.4477 17 13V14H18C18.5523 14 19 14.4477 19 15C19 15.5523 18.5523 16 18 16H17V17C17 17.5523 16.5523 18 16 18C15.4477 18 15 17.5523 15 17V16H14C13.4477 16 13 15.5523 13 15C13 14.4477 13.4477 14 14 14H15V13C15 12.4477 15.4477 12 16 12Z" fill="currentColor"/>
<path fill-rule="evenodd" clip-rule="evenodd" d="M14 2H5C3.89543 2 3 2.89543 3 4V14C3 15.1046 3.89543 16 5 16H12.2676C12.0974 15.7058 12 15.3643 12 15C12 13.8954 12.8954 13 14 13C14 11.8954 14.8954 11 16 11V4C16 2.89543 15.1046 2 14 2ZM7 5C6.44772 5 6 5.44772 6 6C6 6.55228 6.44772 7 7 7H12C12.5523 7 13 6.55228 13 6C13 5.44772 12.5523 5 12 5H7ZM7 8C6.44772 8 6 8.44772 6 9C6 9.55228 6.44772 10 7 10H12C12.5523 10 13 9.55228 13 9C13 8.44772 12.5523 8 12 8H7ZM7 11C6.44772 11 6 11.4477 6 12C6 12.5523 6.44772 13 7 13H9C9.55228 13 10 12.5523 10 12C10 11.4477 9.55228 11 9 11H7Z" fill="currentColor"/>
</svg>
