<svg width="20" height="20" viewBox="0 0 20 20" fill="none" xmlns="http://www.w3.org/2000/svg">
<path fill-rule="evenodd" clip-rule="evenodd" d="M2.72736 9.09091C2.72736 8.58883 3.13438 8.18182 3.63645 8.18182H4.54554C5.04762 8.18182 5.45463 8.58883 5.45463 9.09091C5.45463 9.59299 5.04762 10 4.54554 10H3.63645C3.13438 10 2.72736 9.59299 2.72736 9.09091Z" fill="currentColor"/>
<path fill-rule="evenodd" clip-rule="evenodd" d="M0.90918 11.8182C0.90918 11.3161 1.31619 10.9091 1.81827 10.9091H4.54554C5.04762 10.9091 5.45463 11.3161 5.45463 11.8182C5.45463 12.3203 5.04762 12.7273 4.54554 12.7273H1.81827C1.31619 12.7273 0.90918 12.3203 0.90918 11.8182Z" fill="currentColor"/>
<path fill-rule="evenodd" clip-rule="evenodd" d="M6.36372 4.24C6.36372 3.34881 7.15063 2.72727 7.9871 2.72727H12.078C14.4924 2.72727 16.5585 4.49496 16.5585 6.8C16.5585 7.85765 16.1176 8.80797 15.4103 9.52264C16.4756 10.3184 17.2728 11.4202 17.2728 12.88C17.2728 15.3618 15.0468 17.2727 12.4352 17.2727H7.9871C7.15063 17.2727 6.36372 16.6512 6.36372 15.76V4.24ZM12.7274 6.81818C12.7274 7.32292 12.4531 7.76361 12.0455 7.99939V12.0006C12.4531 12.2364 12.7274 12.6771 12.7274 13.1818C12.7274 13.9349 12.1168 14.5455 11.3637 14.5455C10.6106 14.5455 10.0001 13.9349 10.0001 13.1818C10.0001 12.6771 10.2743 12.2364 10.6819 12.0006V7.99939C10.2743 7.76361 10.0001 7.32292 10.0001 6.81818C10.0001 6.06507 10.6106 5.45454 11.3637 5.45454C12.1168 5.45454 12.7274 6.06507 12.7274 6.81818Z" fill="currentColor"/>
</svg>
