<svg width="20" height="20" viewBox="0 0 20 20" fill="none" xmlns="http://www.w3.org/2000/svg">
<path fill-rule="evenodd" clip-rule="evenodd" d="M4.33366 4.33855C7.44825 1.22048 12.5594 1.22048 15.6739 4.33855C18.7885 7.45661 18.7885 12.5734 15.5941 15.6915C12.9587 18.2499 8.96561 18.7296 5.93089 16.8908L4.81283 17.2106L3.53505 17.6103C3.13575 17.7702 2.73644 17.3705 2.8163 16.8908L3.13575 15.5316L3.37533 14.4922C1.29894 11.3742 1.53852 7.13681 4.33366 4.33855ZM11 6C11 5.44772 10.5523 5 10 5C9.44773 5 9.00002 5.44772 9.00002 6V6.10837C8.41811 6.24622 7.95032 6.51368 7.60478 6.89987C7.10037 7.46362 7.00002 8.1222 7.00002 8.53333C7.00002 8.96232 7.10673 9.36105 7.32732 9.709C7.54281 10.0489 7.83196 10.2854 8.11581 10.4534C8.62715 10.7559 9.26023 10.9086 9.71792 11.019L9.76511 11.0304C10.3111 11.1623 10.6542 11.2518 10.8802 11.3804C10.9262 11.4066 10.9549 11.4281 10.9718 11.443C10.9801 11.4503 10.9853 11.4557 10.9884 11.4591C10.9909 11.462 10.9921 11.4637 10.9925 11.4643L10.9936 11.4674C10.995 11.4725 11 11.4924 11 11.5333C11 11.6509 10.9696 11.7307 10.923 11.78C10.888 11.8171 10.6921 12 10 12C9.515 12 9.2382 11.9261 9.09723 11.8556C8.99098 11.8024 8.97255 11.7617 8.95785 11.7127C8.79915 11.1837 8.24166 10.8835 7.71267 11.0422C7.18368 11.2009 6.88349 11.7584 7.04219 12.2873C7.22749 12.905 7.64239 13.3642 8.20281 13.6444C8.44956 13.7678 8.71779 13.8537 9.00002 13.9101V14C9.00002 14.5523 9.44773 15 10 15C10.5523 15 11 14.5523 11 14V13.897C11.5683 13.7685 12.0305 13.5202 12.377 13.1533C12.8971 12.6026 13 11.9491 13 11.5333C13 11.106 12.8898 10.7093 12.6636 10.3654C12.4438 10.0313 12.1515 9.80284 11.8699 9.64247C11.3743 9.36026 10.7599 9.21256 10.3107 9.10455L10.2349 9.08632C9.69554 8.95596 9.35508 8.86273 9.13423 8.73207C9.04308 8.67814 9.01972 8.64326 9.01647 8.63814C9.01463 8.63523 9.01193 8.63056 9.00893 8.6197C9.00572 8.60805 9.00002 8.58125 9.00002 8.53333C9.00002 8.41113 9.033 8.30305 9.09526 8.23346C9.13658 8.18729 9.32863 8 10 8C10.485 8 10.7618 8.07394 10.9028 8.14443C11.0091 8.19755 11.0275 8.23834 11.0422 8.28735C11.2009 8.81634 11.7584 9.11652 12.2874 8.95783C12.8164 8.79913 13.1165 8.24164 12.9578 7.71265C12.7725 7.095 12.3576 6.63578 11.7972 6.35557C11.5505 6.2322 11.2822 6.1463 11 6.08989V6Z" fill="currentColor"/>
</svg>
