<svg width="20" height="20" viewBox="0 0 20 20" fill="none" xmlns="http://www.w3.org/2000/svg">
<path d="M2.44694 11.079L3.40413 12.0362L3.88999 12.4661L3.90646 12.4825C4.33692 12.9104 5.01678 13.2 5.59995 13.2C6.12445 13.2 6.59997 12.9602 7.07818 12.4859C7.1612 12.4012 7.24775 12.3094 7.33718 12.2145C7.60842 11.9268 7.90618 11.6109 8.21241 11.38C8.69176 11.0186 9.24801 10.8 9.99995 10.8C10.7703 10.8 11.3209 11.0442 11.7869 11.4088C12.001 11.5764 12.1928 11.7658 12.3637 11.9382L12.4556 12.0312C12.5997 12.1772 12.737 12.3163 12.894 12.4604L12.9058 12.4712L12.9172 12.4825C13.3963 12.9587 13.8739 13.2 14.3999 13.2C14.9828 13.2 15.6617 12.9106 16.0924 12.4825L16.1089 12.4661L16.6034 12.0286L17.5531 11.079C18.149 10.4831 18.149 9.51691 17.5531 8.92099L16.5975 7.96544L16.1099 7.53394L16.0934 7.51757C15.6629 7.08966 14.9831 6.80004 14.3999 6.80004C13.8754 6.80004 13.3999 7.03989 12.9217 7.51414C12.8387 7.59885 12.7521 7.69066 12.6627 7.78554C12.3914 8.07327 12.0937 8.38915 11.7875 8.62005C11.3081 8.98147 10.7519 9.20004 9.99992 9.20004C9.22958 9.20004 8.67893 8.9559 8.21296 8.59126C7.99888 8.42372 7.80706 8.23426 7.63613 8.06182L7.5443 7.96892C7.40015 7.82286 7.26286 7.68374 7.10586 7.53971L7.09405 7.52887L7.08268 7.51757C6.60361 7.04134 6.12599 6.80004 5.59992 6.80004C5.01703 6.80004 4.33819 7.08945 3.90751 7.51757L3.89099 7.534L3.39697 7.97096L2.44694 8.92099C1.85102 9.51691 1.85102 10.4831 2.44694 11.079Z" fill="currentColor"/>
<path d="M6.12591 5.24203C6.96252 5.37755 7.64766 5.82638 8.19915 6.37141C8.38351 6.54119 8.54896 6.70896 8.69066 6.85263L8.77245 6.93542C8.94189 7.10636 9.07182 7.23167 9.19903 7.33122C9.41565 7.50075 9.6258 7.60004 9.99992 7.60004C10.3924 7.60004 10.6128 7.50189 10.8242 7.34249C11.0154 7.19832 11.1741 7.02991 11.4015 6.78864C11.5096 6.67393 11.6332 6.54275 11.7832 6.38988L11.7902 6.3828C12.3434 5.83282 13.0316 5.3785 13.8741 5.24201L11.079 2.44694C10.4831 1.85102 9.51691 1.85102 8.92099 2.44694L6.12591 5.24203Z" fill="currentColor"/>
<path d="M8.92099 17.5531L6.12596 14.758C6.96834 14.6215 7.65642 14.1672 8.20963 13.6172L8.21663 13.6102C8.36664 13.4573 8.49026 13.3261 8.59836 13.2114C8.82573 12.9702 8.98446 12.8017 9.17566 12.6576C9.38707 12.4982 9.60742 12.4 9.99995 12.4C10.3741 12.4 10.5842 12.4993 10.8008 12.6688C10.928 12.7684 11.058 12.8937 11.2274 13.0646L11.3092 13.1474C11.4509 13.2911 11.6164 13.4589 11.8007 13.6287C12.3522 14.1737 13.0374 14.6225 13.874 14.7581L11.079 17.5531C10.4831 18.149 9.51691 18.149 8.92099 17.5531Z" fill="currentColor"/>
</svg>
