<svg width="20" height="20" viewBox="0 0 20 20" fill="none" xmlns="http://www.w3.org/2000/svg">
<path fill-rule="evenodd" clip-rule="evenodd" d="M3.875 3H16.125C16.6082 3 17 3.39175 17 3.875V16.125C17 16.6082 16.6082 17 16.125 17H3.875C3.39175 17 3 16.6082 3 16.125V3.875C3 3.39175 3.39175 3 3.875 3ZM6.24372 5.00628C5.90201 4.66457 5.34799 4.66457 5.00628 5.00628C4.66457 5.34799 4.66457 5.90201 5.00628 6.24372L8.76256 10L5.00628 13.7563C4.66457 14.098 4.66457 14.652 5.00628 14.9937C5.34799 15.3354 5.90201 15.3354 6.24372 14.9937L10 11.2374L13.7563 14.9937C14.098 15.3354 14.652 15.3354 14.9937 14.9937C15.3354 14.652 15.3354 14.098 14.9937 13.7563L11.2374 10L14.9937 6.24372C15.3354 5.90201 15.3354 5.34799 14.9937 5.00628C14.652 4.66457 14.098 4.66457 13.7563 5.00628L10 8.76256L6.24372 5.00628Z" fill="currentColor"/>
</svg>
