<svg width="20" height="20" viewBox="0 0 20 20" fill="none" xmlns="http://www.w3.org/2000/svg">
<path d="M17.4207 5.40934H11.9268L11.1271 4.60968C9.30249 2.7842 6.33249 2.7842 4.50791 4.60968L2.58901 6.52944C1.45672 7.66172 0.833389 9.16682 0.833389 10.7671C0.833389 14.0714 3.52139 16.7594 6.82577 16.7594H12.1826C13.1455 16.7594 13.9286 15.9763 13.9286 15.0125C13.9286 14.6537 13.8195 14.3193 13.6327 14.0417C14.3128 13.8025 14.8016 13.1539 14.8016 12.3935C14.8016 12.0347 14.6925 11.7003 14.5057 11.4227C15.1858 11.1835 15.6746 10.5348 15.6746 9.77443C15.6746 9.45667 15.5891 9.1581 15.4398 8.90143H17.4206C18.3836 8.90143 19.1667 8.11834 19.1667 7.15539C19.1667 6.19244 18.3836 5.40934 17.4207 5.40934ZM17.4207 8.02929H11.7461C11.5051 8.02929 11.3096 8.22486 11.3096 8.46581C11.3096 8.70676 11.5051 8.90233 11.7461 8.90233H13.9286C14.4105 8.90233 14.8016 9.29433 14.8016 9.77533C14.8016 10.2564 14.4105 10.6483 13.9286 10.6483H12.6191C12.3781 10.6483 12.1826 10.8439 12.1826 11.0849C12.1826 11.3258 12.3781 11.5214 12.6191 11.5214H13.0556C13.5375 11.5214 13.9286 11.9134 13.9286 12.3944C13.9286 12.8754 13.5375 13.2674 13.0556 13.2674H12.1826C11.9417 13.2674 11.7461 13.463 11.7461 13.7039C11.7461 13.9449 11.9417 14.1404 12.1826 14.1404C12.6645 14.1404 13.0556 14.5324 13.0556 15.0134C13.0556 15.4944 12.6645 15.8864 12.1826 15.8864H6.82577C4.0033 15.8864 1.70639 13.5895 1.70639 10.7671C1.70639 9.39991 2.23892 8.11482 3.20625 7.14753L5.12515 5.22777C5.8681 4.48572 6.84238 4.11468 7.81753 4.11468C8.79267 4.11468 9.76696 4.48572 10.5099 5.22777L10.6924 5.41024H8.25405C8.0131 5.41024 7.81753 5.60581 7.81753 5.84677C7.81753 6.08772 8.0131 6.28329 8.25405 6.28329H17.4207C17.9026 6.28329 18.2937 6.67528 18.2937 7.15629C18.2937 7.63729 17.9026 8.02929 17.4207 8.02929Z" fill="currentColor" stroke="currentColor"/>
</svg>
