<svg width="20" height="20" viewBox="0 0 20 20" fill="none" xmlns="http://www.w3.org/2000/svg">
<path fill-rule="evenodd" clip-rule="evenodd" d="M6.5 2C4.567 2 3 3.59188 3 5.55556V14.4444C3 16.4081 4.567 18 6.5 18H13.5C15.433 18 17 16.4081 17 14.4444V5.55556C17 3.59188 15.433 2 13.5 2H6.5ZM6.90909 9C6.40701 9 6 9.44772 6 10C6 10.5523 6.40701 11 6.90909 11H13.0909C13.593 11 14 10.5523 14 10C14 9.44772 13.593 9 13.0909 9H6.90909ZM6 13C6 12.4477 6.44772 12 7 12H10C10.5523 12 11 12.4477 11 13C11 13.5523 10.5523 14 10 14H7C6.44772 14 6 13.5523 6 13ZM6.90909 6C6.40701 6 6 6.44772 6 7C6 7.55228 6.40701 8 6.90909 8H13.0909C13.593 8 14 7.55228 14 7C14 6.44772 13.593 6 13.0909 6H6.90909Z" fill="currentColor"/>
</svg>
