<svg width="20" height="20" viewBox="0 0 20 20" fill="none" xmlns="http://www.w3.org/2000/svg">
<path d="M14.9444 10C13.7307 10 12.7469 9.10457 12.7469 8C12.7469 9.10457 11.763 10 10.5494 10H9.45061C8.23696 10 7.25311 9.10457 7.25311 8C7.25311 9.10457 6.2692 10 5.05555 10H4.1994C2.71688 10 1.65934 8.69131 2.10154 7.40345L3.47497 3.40345C3.76166 2.5685 4.61129 2 5.57244 2H14.4275C15.3887 2 16.2383 2.5685 16.525 3.40345L17.8984 7.40345C18.3406 8.69131 17.2835 10 15.801 10H14.9444Z" fill="currentColor"/>
<path d="M7.25267 10.18C6.66567 10.6962 5.87887 11 5.05512 11H4.19897C4.13229 11 4.06594 10.998 4 10.994V16C4 16.2652 4.10536 16.5196 4.29289 16.7071C4.48043 16.8946 4.73478 17 5 17H7C7.26522 17 7.51957 16.8946 7.70711 16.7071C7.89464 16.5196 8 16.2652 8 16V15C8 14.7348 8.10536 14.4804 8.29289 14.2929C8.48043 14.1054 8.73478 14 9 14H11C11.2652 14 11.5196 14.1054 11.7071 14.2929C11.8946 14.4804 12 14.7348 12 15V16C12 16.2652 12.1054 16.5196 12.2929 16.7071C12.4804 16.8946 12.7348 17 13 17H15C15.2652 17 15.5196 16.8946 15.7071 16.7071C15.8946 16.5196 16 16.2652 16 16V10.994C15.9339 10.998 15.8674 11 15.8005 11H14.9439C14.1202 11 13.3334 10.6962 12.7464 10.18C12.1594 10.6962 11.3727 11 10.5489 11H9.45018C8.62642 11 7.83965 10.6962 7.25267 10.18Z" fill="currentColor"/>
</svg>
