<svg width="24" height="24" viewBox="0 0 24 24" fill="none" xmlns="http://www.w3.org/2000/svg">
<path d="M2.09448 8.40345L1.14192 8.09911L1.14192 8.09911L2.09448 8.40345ZM3.37247 4.40345L4.32503 4.70779L4.32503 4.70779L3.37247 4.40345ZM7.88804 7C7.88804 6.44772 7.44032 6 6.88804 6C6.33575 6 5.88804 6.44772 5.88804 7H7.88804ZM18.1119 7C18.1119 6.44772 17.6642 6 17.1119 6C16.5597 6 16.1119 6.44772 16.1119 7H18.1119ZM21.9055 8.40345L22.8581 8.09911L22.8581 8.09911L21.9055 8.40345ZM20.6275 4.40345L19.6749 4.70779L19.6749 4.70779L20.6275 4.40345ZM13 7C13 6.44772 12.5523 6 12 6C11.4477 6 11 6.44772 11 7H13ZM15.0672 21V22C15.6194 22 16.0672 21.5523 16.0672 21H15.0672ZM8.93282 21H7.93282C7.93282 21.5523 8.38053 22 8.93282 22V21ZM3.04704 8.70779L4.32503 4.70779L2.41991 4.09911L1.14192 8.09911L3.04704 8.70779ZM5.32417 4H18.6758V2H5.32417V4ZM7.88804 9V7H5.88804V9H7.88804ZM18.1119 9V7H16.1119V9H18.1119ZM19.1567 12H19.9538V10H19.1567V12ZM22.8581 8.09911L21.5801 4.09911L19.6749 4.70779L20.9529 8.70779L22.8581 8.09911ZM19.9538 12C21.9793 12 23.4851 10.0617 22.8581 8.09911L20.9529 8.70779C21.1488 9.32095 20.6873 10 19.9538 10V12ZM5.88804 9C5.88804 9.53149 5.44124 10 4.8432 10V12C6.50377 12 7.88804 10.6776 7.88804 9H5.88804ZM18.6758 4C19.1473 4 19.5443 4.29874 19.6749 4.70779L21.5801 4.09911C21.1772 2.83825 19.993 2 18.6758 2V4ZM4.32503 4.70779C4.45572 4.29874 4.85265 4 5.32417 4V2C4.00697 2 2.82274 2.83825 2.41991 4.09911L4.32503 4.70779ZM16.1119 9C16.1119 10.6776 17.4961 12 19.1567 12V10C18.5587 10 18.1119 9.53152 18.1119 9H16.1119ZM1.14192 8.09911C0.5148 10.0619 2.02134 12 4.04655 12V10C3.31277 10 2.85122 9.32069 3.04704 8.70779L1.14192 8.09911ZM8.93282 12H9.95521V10H8.93282V12ZM13 9.00006V7H11V9.00006H13ZM9.95521 12C11.6158 12 13 10.6777 13 9.00006H11C11 9.53155 10.5533 10 9.95521 10V12ZM8.93282 10C8.33481 10 7.88804 9.53153 7.88804 9H5.88804C5.88804 10.6776 7.27222 12 8.93282 12V10ZM14.0448 12H15.0672V10H14.0448V12ZM15.0672 12C16.7278 12 18.1119 10.6776 18.1119 9H16.1119C16.1119 9.53152 15.6652 10 15.0672 10V12ZM14.0448 10C13.4467 10 13 9.53155 13 9.00006H11C11 10.6777 12.3842 12 14.0448 12V10ZM2.82087 11V19.0018H4.82087V11H2.82087ZM5.86565 22H18.1343V20H5.86565V22ZM21.1791 19V11H19.1791V19H21.1791ZM18.1343 22C19.7949 22 21.1791 20.6776 21.1791 19H19.1791C19.1791 19.5315 18.7323 20 18.1343 20V22ZM2.82087 19.0018C2.82087 20.6805 4.20622 22 5.86565 22V20C5.26647 20 4.82087 19.5322 4.82087 19.0018H2.82087ZM2.54288 8H21.4571V6H2.54288V8ZM9.95521 16H14.0448V14H9.95521V16ZM14.0672 16V21H16.0672V16H14.0672ZM15.0672 20H8.93282V22H15.0672V20ZM9.93282 21V16H7.93282V21H9.93282ZM14.0448 16C14.0529 16 14.0576 16.0014 14.0605 16.0026C14.0639 16.0041 14.0667 16.006 14.0685 16.0078C14.0703 16.0095 14.0699 16.0099 14.069 16.0077C14.0685 16.0065 14.0679 16.005 14.0676 16.0032C14.0672 16.0014 14.0672 16.0002 14.0672 16H16.0672C16.0672 14.8747 15.1407 14 14.0448 14V16ZM9.95521 14C8.85926 14 7.93282 14.8747 7.93282 16H9.93282C9.93282 16.0002 9.93278 16.0014 9.9324 16.0032C9.93203 16.005 9.93152 16.0065 9.93102 16.0077C9.93006 16.0099 9.92972 16.0095 9.9315 16.0078C9.9333 16.006 9.93604 16.0041 9.93953 16.0026C9.94241 16.0014 9.94713 16 9.95521 16V14ZM4.04655 12H4.8432V10H4.04655V12Z" fill="currentColor"/>
</svg>
