<svg width="20" height="20" viewBox="0 0 20 20" fill="none" xmlns="http://www.w3.org/2000/svg">
<path d="M12.3018 12.2832C12.6974 11.8978 13.3314 11.9061 13.7168 12.3018C14.1022 12.6974 14.0939 13.3314 13.6983 13.7168L10.6182 16.7168C10.4282 16.9017 10.1723 17.0034 9.90724 17C9.64204 16.9965 9.38914 16.8873 9.20411 16.6973L6.28322 13.6973L6.21583 13.6211C5.90057 13.224 5.93164 12.6444 6.30275 12.2832C6.67372 11.9223 7.25328 11.907 7.64161 12.2324L7.71681 12.3027L9.93849 14.585L12.3018 12.2832ZM9.90724 2.99999C10.1723 2.99656 10.4282 3.09825 10.6182 3.2832L13.6983 6.2832L13.7676 6.35839C14.0932 6.74693 14.0781 7.32731 13.7168 7.69824C13.3555 8.06912 12.7759 8.09934 12.3789 7.78417L12.3018 7.71679L9.93849 5.41406L7.71681 7.69726C7.33166 8.09293 6.69852 8.10178 6.30275 7.71679C5.90707 7.33164 5.89823 6.6985 6.28322 6.30273L9.20411 3.30273L9.27638 3.23534C9.45238 3.08714 9.67515 3.00308 9.90724 2.99999Z" fill="currentColor"/>
</svg>
