<svg width="20" height="20" viewBox="0 0 20 20" fill="none" xmlns="http://www.w3.org/2000/svg">
<path d="M7.48793 10.3015C7.39553 10.1167 7.2066 10 7 10C6.7934 10 6.60447 10.1167 6.51207 10.3015L6.08434 11.1575C5.93031 11.4656 5.88304 11.5544 5.82599 11.6284C5.76887 11.7024 5.70245 11.7689 5.62837 11.826C5.55437 11.883 5.46556 11.9303 5.15749 12.0843L4.30149 12.5121C4.1167 12.6045 4 12.7934 4 13C4 13.2066 4.1167 13.3955 4.30149 13.4879L5.15749 13.9157C5.46556 14.0697 5.55437 14.117 5.62837 14.174C5.70245 14.2311 5.76887 14.2976 5.82599 14.3716C5.88304 14.4456 5.93031 14.5344 6.08434 14.8425L6.51207 15.6985C6.60447 15.8833 6.7934 16 7 16C7.2066 16 7.39553 15.8833 7.48793 15.6985L7.91566 14.8425C8.06969 14.5344 8.11696 14.4456 8.17401 14.3716C8.23113 14.2976 8.29755 14.2311 8.37163 14.174C8.44563 14.117 8.53444 14.0697 8.84251 13.9157L9.69851 13.4879C9.8833 13.3955 10 13.2066 10 13C10 12.7934 9.8833 12.6045 9.69851 12.5121L8.84251 12.0843C8.53444 11.9303 8.44563 11.883 8.37163 11.826C8.29755 11.7689 8.23113 11.7024 8.17401 11.6284C8.11696 11.5544 8.06969 11.4656 7.91566 11.1575L7.48793 10.3015Z" fill="currentColor"/>
<path d="M12.1456 4.34943C12.0645 4.13886 11.862 4 11.6364 4C11.4389 4 11.2594 4.10657 11.1634 4.27433L11.1271 4.34943L10.4842 6.02095C10.3203 6.44698 10.2691 6.57016 10.1987 6.66921C10.1281 6.76852 10.0412 6.85533 9.94194 6.92596C9.84289 6.99639 9.7197 7.04761 9.29368 7.21147L7.62216 7.8544C7.41159 7.93546 7.27273 8.13799 7.27273 8.36364C7.27273 8.58928 7.41159 8.79181 7.62216 8.87287L9.29368 9.5158C9.7197 9.67966 9.84289 9.73088 9.94194 9.80131C10.0412 9.87194 10.1281 9.95876 10.1987 10.0581C10.2691 10.1571 10.3203 10.2803 10.4842 10.7063L11.1271 12.3778C11.2082 12.5884 11.4107 12.7273 11.6364 12.7273C11.862 12.7273 12.0645 12.5884 12.1456 12.3778L12.7885 10.7063C12.9524 10.2803 13.0036 10.1571 13.074 10.0581C13.1447 9.95876 13.2315 9.87194 13.3308 9.80131C13.4298 9.73088 13.553 9.67966 13.979 9.5158L15.6506 8.87287C15.8611 8.79181 16 8.58928 16 8.36364C16 8.13799 15.8611 7.93546 15.6506 7.8544L13.979 7.21147C13.553 7.04762 13.4298 6.99639 13.3308 6.92596C13.2315 6.85533 13.1447 6.76852 13.074 6.66921C13.0036 6.57016 12.9524 6.44698 12.7885 6.02095L12.1456 4.34943Z" fill="currentColor"/>
</svg>
