<svg width="20" height="20" viewBox="0 0 20 20" fill="none" xmlns="http://www.w3.org/2000/svg">
<path d="M15.6597 4.34333C13.9922 2.67608 11.7175 1.83486 9.32912 2.02695C6.11816 2.28468 3.30367 4.51621 2.36177 7.59457C1.68898 9.79409 1.97171 12.0905 3.06739 13.9874L2.02938 17.4316C1.93006 17.7621 2.23201 18.0735 2.566 17.9846L6.17343 17.0185C7.342 17.6557 8.65713 17.991 9.9963 17.9918H9.99951C13.3594 17.9918 16.4639 15.938 17.5379 12.7564C18.584 9.65402 17.8102 6.49482 15.6597 4.34333ZM13.9145 12.8484C13.7479 13.3151 12.9317 13.7649 12.5649 13.7977C12.1981 13.8313 11.8545 13.9634 10.1661 13.2983C8.13412 12.4979 6.85102 10.416 6.7517 10.2831C6.65159 10.1495 5.93555 9.20019 5.93555 8.21729C5.93555 7.23439 6.45215 6.75095 6.63557 6.55165C6.81898 6.35154 7.03524 6.30192 7.16899 6.30192C7.30195 6.30192 7.43571 6.30192 7.55184 6.30672C7.69441 6.31232 7.85219 6.31953 8.00197 6.6517C8.17978 7.0471 8.56823 8.0348 8.61789 8.13485C8.66755 8.2349 8.70119 8.35176 8.63471 8.48463C8.56823 8.61749 8.53459 8.70073 8.43527 8.81759C8.33516 8.93445 8.22543 9.07773 8.13572 9.16737C8.03561 9.26662 7.93149 9.37548 8.04762 9.57478C8.16456 9.77488 8.56503 10.4288 9.15932 10.9579C9.92342 11.6382 10.5666 11.8487 10.7668 11.9496C10.967 12.0496 11.0832 12.0328 11.2001 11.8992C11.317 11.7663 11.6999 11.3165 11.8329 11.1164C11.9658 10.9163 12.0996 10.9499 12.283 11.0163C12.4664 11.0827 13.4491 11.5662 13.6486 11.6662C13.8488 11.7663 13.9818 11.8159 14.0314 11.8992C14.0811 11.9816 14.0811 12.3818 13.9145 12.8484Z" fill="currentColor"/>
</svg>