<svg width="20" height="20" viewBox="0 0 20 20" fill="none" xmlns="http://www.w3.org/2000/svg">
<path fill-rule="evenodd" clip-rule="evenodd" d="M18.1988 4.29955C18.4826 4.59218 18.6843 4.95455 18.7832 5.35004C19.0476 6.81562 19.1759 8.3025 19.1666 9.79171C19.1718 11.2587 19.0435 12.723 18.7832 14.1667C18.6843 14.5622 18.4826 14.9246 18.1988 15.2172C17.9149 15.5098 17.5589 15.7224 17.1666 15.8334C15.7332 16.2167 9.99991 16.2167 9.99991 16.2167C9.99991 16.2167 4.26657 16.2167 2.83324 15.8334C2.44892 15.7282 2.09822 15.5257 1.81503 15.2454C1.53183 14.9652 1.32571 14.6166 1.21657 14.2334C0.952213 12.7678 0.823889 11.2809 0.83324 9.79171C0.825937 8.31363 0.954252 6.838 1.21657 5.38337C1.31556 4.98788 1.51717 4.62552 1.80103 4.33288C2.08489 4.04024 2.44095 3.82769 2.83324 3.71671C4.26657 3.33337 9.99991 3.33337 9.99991 3.33337C9.99991 3.33337 15.7332 3.33337 17.1666 3.68337C17.5589 3.79436 17.9149 4.00691 18.1988 4.29955ZM8.74758 12.1627C8.46981 12.3206 8.12494 12.12 8.12494 11.8005V7.78304C8.12494 7.4635 8.46981 7.26288 8.74758 7.42085L12.2797 9.42956C12.5606 9.58932 12.5606 9.99419 12.2797 10.1539L8.74758 12.1627Z" fill="CurrentColor"/>
</svg>
