<svg width="20" height="20" viewBox="0 0 20 20" fill="none" xmlns="http://www.w3.org/2000/svg">
<path fill-rule="evenodd" clip-rule="evenodd" d="M18.199 4.2995C18.4829 4.59214 18.6845 4.9545 18.7835 5.34999C19.0478 6.81558 19.1762 8.30246 19.1668 9.79166C19.1721 11.2586 19.0438 12.723 18.7835 14.1667C18.6845 14.5622 18.4829 14.9245 18.199 15.2172C17.9152 15.5098 17.5591 15.7223 17.1668 15.8333C15.7335 16.2167 10.0002 16.2167 10.0002 16.2167C10.0002 16.2167 4.26682 16.2167 2.83348 15.8333C2.44917 15.7282 2.09847 15.5257 1.81527 15.2454C1.53207 14.9651 1.32595 14.6165 1.21682 14.2333C0.952457 12.7677 0.824134 11.2809 0.833484 9.79166C0.826181 8.31359 0.954496 6.83796 1.21682 5.38333C1.31581 4.98784 1.51741 4.62547 1.80127 4.33283C2.08513 4.0402 2.44119 3.82765 2.83348 3.71666C4.26682 3.33333 10.0002 3.33333 10.0002 3.33333C10.0002 3.33333 15.7335 3.33333 17.1668 3.68333C17.5591 3.79432 17.9152 4.00686 18.199 4.2995ZM8.74783 12.1626C8.47006 12.3206 8.12518 12.12 8.12518 11.8004V7.783C8.12518 7.46345 8.47006 7.26284 8.74783 7.4208L12.28 9.42951C12.5609 9.58927 12.5609 9.99414 12.28 10.1539L8.74783 12.1626Z" fill="currentColor"/>
</svg>
